<?xml version="1.0" encoding="utf-8"?>
<!-- Generator: Adobe Illustrator 28.1.0, SVG Export Plug-In . SVG Version: 6.00 Build 0)  -->
<svg version="1.1" id="Calque_1" xmlns="http://www.w3.org/2000/svg" xmlns:xlink="http://www.w3.org/1999/xlink" x="0px" y="0px"
	 viewBox="0 0 617.1 130.8" style="enable-background:new 0 0 617.1 130.8;" xml:space="preserve">
<style type="text/css">
	.st0{fill:#FFFFFF;stroke:#FFFFFF;stroke-width:3;stroke-miterlimit:10;}
	.st1{fill:#FFFFFF;}
	.st2{fill:#F48D35;}
	.st3{fill:#FFFFFF;stroke:#FFFFFF;stroke-width:2;stroke-miterlimit:10;}
	.st4{fill:#2EADD1;}
	.st5{fill:#91D333;}
	.st6{fill:#5EB5FF;}
	.st7{fill:#1094E9;}
	.st8{fill:#265068;}
	.st9{fill:#7ECCDC;}
	.st10{fill:#4C4C4C;stroke:#4C4C4C;stroke-width:3;stroke-miterlimit:10;}
	.st11{fill:#4C4C4C;}
	.st12{fill:#4C4C4C;stroke:#4C4C4C;stroke-width:2;stroke-miterlimit:10;}
</style>
<g>
	<path class="st0" d="M570.9,104.2c-1.1-0.1-2.1-0.6-3-1.3c-1.8-1.4-3-3.8-3.6-7c-0.2-1.4-0.3-2.9-0.3-4.6c0-4.2,0.8-9.4,2.3-15.5
		c1.7-6.6,4.3-14.2,8-22.8c0.2-0.5,0.4-0.9,0.5-1.2l0.1-0.5c-0.2,0-1,0.1-2.5,0.3c-1.5,0.2-3.1,0.4-4.8,0.7
		c-1.7,0.3-3.2,0.5-4.4,0.7c-1.1,0.2-2,0.4-2.6,0.4c-0.6,0-1-0.1-1.3-0.3c-0.7-0.3-1.1-0.8-1.5-1.5c-0.1-0.2-0.1-0.4-0.1-0.5
		c0-0.1,0-0.3,0-0.3v-0.4c0-1.2,0.5-2,1.6-2.5c0.2-0.1,0.4-0.2,0.6-0.2c0.2-0.1,0.5-0.1,0.9-0.2c0.4-0.1,0.9-0.2,1.5-0.2
		c4.7-0.8,9.2-1.4,13.5-1.9c0.5,0,1-0.1,1.3-0.1c0.4,0,0.6-0.1,0.6-0.1c0,0,0.2-0.2,0.4-0.6c0.2-0.4,0.4-0.9,0.7-1.5l0.3-0.6
		c0.8-1.7,1.8-3.7,2.9-6s2-4,2.6-5.1c0.6-1,1.2-2.1,1.8-3.1c0.6-1.1,1.1-1.8,1.4-2.1c0.8-0.9,1.7-1.4,2.5-1.4c0.6,0,1.1,0.2,1.8,0.7
		c0.5,0.5,0.8,1.1,0.8,1.8v0.3c0,0.3,0,0.6-0.1,1.1c-0.1,0.5-0.3,1-0.5,1.5s-0.4,0.8-0.6,1c0,0.1-0.1,0.2-0.2,0.4
		c-0.1,0.2-0.2,0.4-0.4,0.6c-0.3,0.5-0.7,1.4-1.4,2.7c-0.6,1.3-1.3,2.8-2,4.3c-0.7,1.5-1.3,2.8-1.9,4c-0.5,1.1-0.8,1.7-0.8,1.8
		l0.7-0.1c0.4,0,1,0,1.6-0.1c2.1-0.1,3.9-0.2,5.4-0.3c1.5,0,3.5-0.1,5.8-0.1c1.8,0,3.1,0,4.1,0c0.9,0,1.6,0,2,0.1
		c0.4,0.1,0.7,0.2,0.9,0.3c0.4,0.3,0.7,0.6,0.9,1c0.2,0.4,0.3,0.7,0.3,1.1c0,0.1,0,0.3-0.1,0.4c0,0.5-0.2,1-0.6,1.4
		c-0.4,0.4-0.8,0.7-1.3,0.8c-0.1,0-0.5,0.1-1.2,0.1c-0.7,0-1.6,0.1-2.6,0.1c-6.4,0.2-12.4,0.6-17.7,1.2l-1.1,0.1l-0.8,2.1
		c-5.6,13-9,24.4-10.3,34.3c-0.2,1.9-0.4,3.6-0.4,5.1c0,2.2,0.3,4,0.8,5.3c0.2,0.4,0.4,0.7,0.6,0.8c0.2,0.1,0.4,0.2,0.7,0.2
		c1.2,0,3.2-1.3,6-3.8c2.1-1.8,4.7-4.4,7.7-7.7c3.1-3.3,5.8-6.4,8.2-9.4c0.4-0.6,0.8-1,1.1-1.3c0.3-0.3,0.5-0.5,0.7-0.7
		c0.2-0.1,0.3-0.2,0.5-0.3c0.2-0.1,0.5-0.1,0.9-0.1s0.7,0,0.9,0.1c0.6,0.3,1,0.6,1.2,1.1c0.2,0.4,0.3,0.8,0.3,1.2
		c0,0.3,0,0.6-0.1,0.8c-0.3,0.8-2.2,3.3-5.8,7.6c-6.8,8.1-12,13.4-15.8,16c-2.2,1.5-4.3,2.2-6.2,2.2
		C571.6,104.3,571.2,104.3,570.9,104.2z"/>
</g>
<g>
	<path class="st1" d="M339.1,65l10.7-5.1c-3.2-6.4-9.4-13-21.5-13c-0.9,0-1.8,0-2.7,0.1l-5.5,13.8c2.2-1.9,5.1-3,8.2-3
		C333.4,57.9,337.5,61.1,339.1,65z M328.4,85.9c-7.2,0-12.6-5.5-13.1-12.9L309,88.9c4.7,5.1,11.6,8,19.4,8c12,0,18.3-6.7,21.5-13
		l-10.7-5.1C337.5,82.7,333.4,85.9,328.4,85.9z"/>
	<path class="st1" d="M352.6,78.5c0-9.9,7.2-18.3,19.1-18.3c12,0,19.1,8.5,19.1,18.3s-7.1,18.4-19.1,18.4
		C359.8,96.9,352.6,88.4,352.6,78.5z M379.4,78.5c0-4.6-2.8-8.5-7.7-8.5c-4.9,0-7.5,3.8-7.5,8.5c0,4.7,2.7,8.6,7.5,8.6
		C376.6,87.1,379.4,83.2,379.4,78.5z"/>
	<path class="st1" d="M420.4,75.8c0-4.3-2.2-5.8-5.7-5.8c-3.3,0-5.5,1.8-6.8,3.4V96h-11.2V61h11.2v4.3c2.1-2.5,6.2-5.1,12.1-5.1
		c8,0,11.6,4.6,11.6,11.1V96h-11.2V75.8z"/>
	<path class="st1" d="M463.4,75.8c0-4.3-2.2-5.8-5.7-5.8c-3.3,0-5.5,1.8-6.8,3.4V96h-11.2V61h11.2v4.3c2.1-2.5,6.2-5.1,12.1-5.1
		c8,0,11.6,4.6,11.6,11.1V96h-11.2V75.8z"/>
	<path class="st1" d="M499,60.2c10.4,0,17.9,7.6,17.9,19.5v2.4h-24.9c0.7,3.3,3.7,6.2,8.9,6.2c3.1,0,6.6-1.2,8.6-3l4.7,7
		c-3.5,3.1-9.3,4.6-14.6,4.6c-10.8,0-19.1-7-19.1-18.4C480.3,68.4,488,60.2,499,60.2z M491.8,74.8h14.4c-0.3-2.5-2.1-6-7.2-6
		C494.1,68.8,492.2,72.3,491.8,74.8z"/>
	<path class="st1" d="M539.2,60.2c7.5,0,12.2,3.3,14.4,6.5l-7.2,6.7c-1.4-2-3.6-3.3-6.6-3.3c-4.6,0-8.2,3.2-8.2,8.5s3.6,8.6,8.2,8.6
		c3,0,5.2-1.5,6.6-3.4l7.2,6.8c-2.1,3-6.8,6.5-14.4,6.5c-10.9,0-19.1-7.4-19.1-18.4C520.1,67.6,528.3,60.2,539.2,60.2z"/>
</g>
<g>
	<polygon class="st9" points="277.7,120.8 268.2,120.8 312.4,10 321.8,10 	"/>
</g>
<g>
	<path class="st9" d="M170.1,11.7l-7.6,1.1c-0.5,0-0.8,0.5-0.8,1v6.6c0,0.5,0.5,1,1,1h7.6c0.5,0,1-0.5,1-1v-7.6
		c0-0.3-0.2-0.5-0.3-0.6C170.6,11.7,170.2,11.7,170.1,11.7"/>
	<path class="st9" d="M81.4,44.3c0.3-1.6,0.8-3.1,1.3-4.2c0.6-1.5,1.5-2.8,2.4-3.6c1-1,1.9-1.6,3.2-2.1c1.3-0.5,2.4-0.6,3.9-0.6
		c2.9,0,5.4,1,7.3,2.8c1.8,1.8,2.9,4.4,3.7,7.8H81.4z M107.5,32.2c-1.8-1.9-4.1-3.6-6.6-4.5c-2.6-1-5.5-1.6-8.6-1.6
		c-3.1,0-5.8,0.5-8.4,1.6c-2.6,1-4.7,2.6-6.6,4.7c-1.8,1.9-3.2,4.5-4.4,7.3c-1,2.9-1.5,6.2-1.5,9.7c0,3.7,0.5,7,1.6,9.9
		c1,2.9,2.6,5.4,4.4,7.3c1.9,1.9,4.2,3.6,6.8,4.5c2.6,1,5.7,1.6,8.8,1.6c2.4,0,4.7-0.3,7-1c2.1-0.6,4.2-1.6,5.8-2.8
		c1.6-1.1,3.1-2.8,4.2-4.7c1.1-1.8,1.8-4.1,2.1-6.3c0-0.3,0-0.5-0.2-0.8c-0.2-0.2-0.5-0.3-0.6-0.3h-7.6c-0.5,0-1,0.3-1,0.8
		c0,1.1-0.3,2.1-1,3.1c-0.5,0.8-1.3,1.6-2.1,2.3c-1,0.6-1.9,1.1-3.1,1.5c-2.8,0.6-5.7,0.6-8.1-0.3c-1.3-0.5-2.6-1.3-3.7-2.4
		c-1.1-1.1-1.9-2.6-2.6-4.2c-0.6-1.5-1-3.2-1.1-5.4h31.3c0.5,0,1-0.5,1-1v-1.8c0-3.6-0.5-7-1.5-9.7
		C110.7,36.7,109.3,34.3,107.5,32.2"/>
	<path class="st9" d="M66,10.8H54.3c-0.3,0-0.8,0.3-0.8,0.6L38.4,58L22.8,11.4c-0.2-0.3-0.5-0.6-1-0.6h-1.1c-0.2,0-0.3,0-0.3,0
		l-9.9,4.4C10.2,15.3,10,15.6,10,16l0.2,54.8c0,0.5,0.5,1,1,1h7.1c0.5,0,1-0.5,1-1V26.3l14.6,44.8c0.2,0.3,0.5,0.6,1,0.6h7
		c0.3,0,0.8-0.3,0.8-0.6l14.8-44.8v44.4c0,0.5,0.5,1,1,1h7.5c0.5,0,1-0.5,1-1v-59C66.9,11.1,66.4,10.8,66,10.8"/>
	<path class="st9" d="M270.1,10.8h-7.6c-0.5,0-1,0.5-1,1v59c0,0.5,0.5,1,1,1h7.6c0.5,0,1-0.5,1-1v-59
		C271.1,11.1,270.8,10.8,270.1,10.8"/>
	<path class="st9" d="M247.4,59.3c-0.6,0.8-1.3,1.6-2.1,2.3c-1,0.8-1.8,1.3-2.9,1.9c-1,0.5-2.1,1-3.2,1.1c-1.1,0.3-2.3,0.3-3.4,0.3
		c-2.6,0-4.5-0.5-6-1.6c-1.3-1-1.9-2.4-1.9-4.2c0-5.5,5-8.1,15.6-8.1h4.2v8.3H247.4z M252,29.4c-1.6-1.3-3.6-2.1-5.8-2.6
		c-2.3-0.5-4.7-0.6-7.5-0.6c-12.2,0-18.7,4.7-19.3,13.9c0,0.3,0,0.5,0.3,0.6c0.2,0.2,0.5,0.3,0.6,0.3h7.6c0.5,0,1-0.3,1-1
		c0.2-4.4,3.2-6.5,9.4-6.5c2.3,0,4.1,0.2,5.4,0.6c1.1,0.3,1.9,1,2.6,1.8c0.6,0.8,1,1.9,1.1,3.2c0.2,1.3,0.2,2.6,0.2,4.2h-2.8
		c-17.7,0-26.6,5.4-26.6,15.9c0,1.9,0.3,3.7,1.1,5.4c0.8,1.6,1.8,3.1,3.2,4.2c1.3,1.1,3.1,2.1,4.9,2.8c1.9,0.6,3.9,1,6.2,1
		c5.5,0,10.1-1.5,13.9-4.2v2.3c0,0.5,0.5,1,1,1h7.6c0.5,0,1-0.5,1-1V43.2c0-3.4-0.5-6.2-1.3-8.3C254.9,32.5,253.6,30.7,252,29.4"/>
	<path class="st9" d="M188.1,37.7c1-1.3,2.1-2.3,3.6-2.9c2.3-1.1,5.2-1.3,7.8-0.5c1,0.3,1.9,0.8,2.8,1.3c0.8,0.6,1.3,1.3,1.8,2.3
		c0.5,0.8,0.8,1.9,0.8,3.1c0,0.5,0.5,0.8,1,0.8h7.6l0,0c0.5,0,1-0.5,1-1c0-0.2,0-0.3-0.2-0.3c-0.3-2.1-1-4.1-1.8-5.8
		c-1-1.8-2.3-3.4-3.9-4.5c-1.6-1.3-3.4-2.3-5.5-2.9c-2.1-0.6-4.4-1-7-1c-3.1,0-5.8,0.5-8.4,1.5s-4.9,2.4-6.6,4.5
		c-1.8,1.9-3.2,4.4-4.2,7.3c-1,2.9-1.5,6.2-1.5,9.9c0,3.7,0.5,7.1,1.5,9.9c1,2.6,2.3,4.9,4.4,7.1c0.2,0.2,0.2,0.2,0.3,0.2
		c3.4,1.5,5.8,2.9,8.4,5.2c0.2,0.2,0.3,0.2,0.3,0.2c1.8,0.5,3.7,0.6,5.8,0.6c2.3,0,4.5-0.3,6.6-1s3.9-1.6,5.5-2.8
		c1.6-1.3,2.9-2.8,4.1-4.5c1-1.8,1.8-4.1,1.9-6.3c0-0.3,0-0.5-0.2-0.6s-0.5-0.3-0.6-0.3h-7.6c-0.5,0-1,0.3-1,0.8
		c-0.2,1.3-0.3,2.3-0.8,3.2c-0.5,0.8-1.1,1.6-1.8,2.1c-0.8,0.6-1.6,1-2.8,1.3c-1,0.3-2.1,0.5-3.2,0.5c-3.6,0-6.2-1.3-8.3-3.9
		c-2.1-2.6-3.1-6.5-3.1-11.7c0-2.6,0.3-4.9,0.8-6.8C186.3,40.6,187.1,39,188.1,37.7"/>
	<path class="st9" d="M170.1,27h-7.6c-0.5,0-1,0.5-1,1v36.2c0,0.3,0.2,0.5,0.3,0.8c0.2,0.2,0.3,0.2,0.6,0.2h0.2
		c2.4-0.6,4.2-0.8,7.5-0.8c0.5,0,1-0.5,1-1V28C171,27.3,170.6,27,170.1,27"/>
	<path class="st9" d="M147.2,58.3c-0.3,0.6-1.3,1.6-2.6,2.9c-2.6,2.4-5.2,3.7-7.9,3.7c-2.9,0-5.2-1.1-6.8-3.6
		c-0.2-0.2-0.3-0.3-0.3-0.6l-0.2-0.2c-2.1-2.8-3.4-7-3.4-11.8c0-9.7,4.5-16.4,11.4-16.4c3.2,0,6,1.5,7.9,4.4
		c1.1,1.5,1.5,1.9,1.9,3.1V58.3L147.2,58.3z M156.6,10.9c0-0.5-0.5-1-1-1h-7.3c-0.5,0-1,0.5-1,1v18c-2.8-3.1-6.8-4.9-11.5-4.9
		c-4.5,0-8.9,1.8-12.3,5.2c-4.5,4.5-7,11.5-7,19.8c0,13.6,7.6,23.8,17.7,23.8c0.3,0,0.6,0,0.8,0h1.1c3.7-0.2,9.1-0.3,12-5.7l0.2,2.4
		c0,0.5,0.5,0.8,1,0.8h1.9c0.2,0,0.3,0,0.5-0.2c1-0.5,3.4-1.9,4.4-2.4c0.3-0.2,0.6-0.5,0.6-1c-0.2-1.9-0.2-4.5-0.2-7.6V10.9
		L156.6,10.9z"/>
	<polygon class="st1" points="61.7,97 80.2,97 80.2,94.1 61.7,94.1 61.7,80.8 82.8,80.8 82.8,77.9 58.8,77.9 58.8,113.9 83.3,113.9 
		83.3,111 61.7,111 	"/>
	<polygon class="st1" points="112.3,77.9 99.7,93.8 87,77.9 83.3,77.9 97.7,96.1 84,113.7 87.5,113.7 99.7,98.3 111.8,113.7 
		115.6,113.7 101.5,96.1 116.1,77.9 	"/>
	<path class="st1" d="M131.8,97.7h-12.2V80.8h11.7c4.4,0,7.8,3.6,7.8,8.1C139.3,93.3,136.5,97.7,131.8,97.7 M132,77.9H117v35.8h2.9
		v-13.3h11.7c5.8,0,10.4-4.9,10.4-11C142,83.9,138.1,77.9,132,77.9"/>
	<path class="st1" d="M169.9,118.1c-14.1,0-23-12.2-23.5-23.8c0-14.3,12.2-24,23.5-24c12.8,0,23.5,11,23.5,24
		C193.4,105.8,184,118.1,169.9,118.1 M169.9,67.7c-14.3,0-26.3,12.2-26.3,26.6c0,6.6,2.8,13.1,7.3,18.2c5,5.2,11.7,8.3,19,8.4l0,0
		l0,0c14.4-0.3,26.3-12.2,26.3-26.4C196.3,81.5,185.6,67.7,169.9,67.7"/>
</g>
</svg>
