<svg width="241" height="32" fill="none" xmlns="http://www.w3.org/2000/svg"><g clip-path="url(#clip0_402_1016)" fill-rule="evenodd" clip-rule="evenodd"><path d="M234.678 22.454a5.623 5.623 0 0 1-.659 1.781 3.522 3.522 0 0 1-1.233 1.249c-.515.311-1.157.466-1.924.466-.724 0-1.344-.16-1.859-.483a4.112 4.112 0 0 1-1.282-1.265 5.459 5.459 0 0 1-.741-1.781 8.9 8.9 0 0 1-.23-1.998c0-.71.071-1.393.214-2.048a5.493 5.493 0 0 1 .69-1.748c.319-.51.741-.921 1.267-1.232.526-.31 1.173-.466 1.941-.466.767 0 1.403.155 1.908.466.504.31.915.716 1.233 1.215.318.5.543 1.077.675 1.732.131.655.197 1.337.197 2.047 0 .711-.066 1.399-.197 2.065zm-.009-17.322v8.65h-.068a5.202 5.202 0 0 0-2.258-1.913 7.213 7.213 0 0 0-3.015-.649c-1.309 0-2.458.25-3.446.749a7.32 7.32 0 0 0-2.463 1.98 8.571 8.571 0 0 0-1.482 2.843 11.243 11.243 0 0 0-.499 3.344c0 1.197.166 2.35.499 3.46a9.066 9.066 0 0 0 1.482 2.944 6.99 6.99 0 0 0 2.498 2.03c1.01.498 2.182.747 3.515.747 1.171 0 2.223-.205 3.153-.615.93-.41 1.683-1.081 2.257-2.013h.069v2.196h4.652V5.132h-4.894zm-15.245 6.123c.324 0 .682.056 1.076.167v4.414a9.895 9.895 0 0 0-.833-.117 9.226 9.226 0 0 0-.938-.05c-.903 0-1.666.145-2.291.435a3.937 3.937 0 0 0-1.511 1.187 4.675 4.675 0 0 0-.816 1.756 9.22 9.22 0 0 0-.243 2.173v7.791h-4.93V11.723h4.687v3.21h.069a5.78 5.78 0 0 1 .938-1.488 6.08 6.08 0 0 1 1.354-1.17 6.735 6.735 0 0 1 1.632-.752 6.087 6.087 0 0 1 1.806-.268zm-19.236 11.188c0 .257-.029.599-.086 1.025a3.31 3.31 0 0 1-.459 1.266c-.25.417-.636.774-1.157 1.073-.523.3-1.26.449-2.213.449-.385 0-.76-.032-1.123-.096a2.828 2.828 0 0 1-.952-.336 1.753 1.753 0 0 1-.647-.657c-.159-.278-.238-.62-.238-1.026 0-.426.079-.78.238-1.057.158-.277.368-.507.629-.689a3.26 3.26 0 0 1 .919-.432 9.153 9.153 0 0 1 1.072-.256c.386-.065.772-.118 1.158-.16.385-.044.753-.097 1.105-.161s.681-.144.988-.24a2.22 2.22 0 0 0 .766-.4v1.697zm5 2.625v-8.932c0-1.04-.244-1.876-.729-2.507a4.963 4.963 0 0 0-1.875-1.478 8.714 8.714 0 0 0-2.535-.713 21.119 21.119 0 0 0-2.743-.183c-.995 0-1.985.094-2.969.282a8.72 8.72 0 0 0-2.656.947 5.802 5.802 0 0 0-1.945 1.76c-.509.73-.798 1.648-.868 2.755h4.931c.092-.93.417-1.594.972-1.992.556-.399 1.319-.598 2.292-.598.439 0 .85.028 1.232.083.382.056.718.166 1.007.332.29.166.521.399.695.698.173.298.26.703.26 1.211.023.488-.128.859-.451 1.113-.325.255-.764.448-1.319.581-.556.133-1.193.232-1.911.299-.717.066-1.446.155-2.187.266-.741.11-1.475.26-2.205.448a6.362 6.362 0 0 0-1.944.846c-.568.377-1.03.88-1.389 1.511-.359.631-.538 1.433-.538 2.407 0 .886.156 1.65.468 2.291a4.37 4.37 0 0 0 1.302 1.594c.556.42 1.204.73 1.945.93.741.2 1.539.299 2.396.299 1.111 0 2.199-.156 3.264-.465a6.483 6.483 0 0 0 2.778-1.627 6.56 6.56 0 0 0 .347 1.66h5c-.231-.354-.394-.885-.486-1.594a17.089 17.089 0 0 1-.139-2.224zM190.5 5.132l-8.96 14.527v9.046h-5.307v-9.178l-8.858-14.395h5.95l5.646 9.31 5.613-9.31h5.916zm-22.669 9.45c.321.792.482 1.745.482 2.86v11.57h-4.887v-9.798c0-.58-.023-1.126-.069-1.639-.046-.512-.172-.958-.379-1.337a2.26 2.26 0 0 0-.911-.903c-.402-.223-.947-.335-1.635-.335-.689 0-1.245.129-1.669.385a2.82 2.82 0 0 0-.998 1.003c-.241.413-.402.88-.482 1.404a10.379 10.379 0 0 0-.121 1.589v9.63h-4.887v-9.697c0-.512-.011-1.02-.034-1.521a4.197 4.197 0 0 0-.292-1.388 2.155 2.155 0 0 0-.861-1.02c-.401-.256-.992-.384-1.772-.384-.23 0-.534.05-.912.15-.379.1-.746.29-1.102.568-.355.28-.66.68-.911 1.204-.253.524-.379 1.21-.379 2.057V29.01h-4.887V11.723h4.612v2.34h.068c.642-.89 1.417-1.582 2.323-2.072.907-.49 1.945-.736 3.115-.736 1.124 0 2.151.212 3.08.635.93.424 1.635 1.17 2.117 2.24.527-.757 1.244-1.426 2.151-2.006.906-.579 1.978-.869 3.217-.869.941 0 1.813.112 2.616.334.803.224 1.491.58 2.065 1.07.574.491 1.021 1.132 1.342 1.923zm-29.657-3.327c.324 0 .682.056 1.076.167v4.414a9.836 9.836 0 0 0-.833-.117 9.226 9.226 0 0 0-.938-.05c-.903 0-1.666.145-2.291.435a3.944 3.944 0 0 0-1.511 1.187 4.675 4.675 0 0 0-.816 1.756 9.22 9.22 0 0 0-.243 2.173v7.791h-4.93V11.723h4.687v3.21h.069c.232-.535.544-1.03.938-1.488a6.08 6.08 0 0 1 1.354-1.17 6.735 6.735 0 0 1 1.632-.752 6.092 6.092 0 0 1 1.806-.268zM119.673 22.47a5.322 5.322 0 0 1-.689 1.765 3.615 3.615 0 0 1-1.311 1.249c-.549.311-1.227.466-2.034.466-.806 0-1.478-.155-2.016-.466a3.657 3.657 0 0 1-1.295-1.249 5.344 5.344 0 0 1-.689-1.765 10.27 10.27 0 0 1 0-4.045 5.166 5.166 0 0 1 .689-1.765c.325-.51.757-.927 1.295-1.249.538-.321 1.21-.482 2.016-.482.807 0 1.485.16 2.034.482.549.322.986.738 1.311 1.249.325.51.555 1.099.689 1.765a10.196 10.196 0 0 1 0 4.045zm2.999-8.741c-.805-.786-1.775-1.395-2.912-1.826-1.138-.432-2.407-.648-3.808-.648-1.402 0-2.666.216-3.791.648-1.126.431-2.091 1.04-2.895 1.826-.805.786-1.425 1.738-1.861 2.855-.437 1.118-.655 2.363-.655 3.735 0 1.373.218 2.613.655 3.72a8.008 8.008 0 0 0 1.861 2.838c.804.786 1.769 1.39 2.895 1.81 1.125.42 2.389.63 3.791.63 1.401 0 2.67-.21 3.808-.63 1.137-.42 2.107-1.024 2.912-1.81a8.035 8.035 0 0 0 1.861-2.839c.436-1.107.655-2.346.655-3.719 0-1.372-.219-2.617-.655-3.735-.437-1.117-1.057-2.07-1.861-2.855zm-18.457-8.547c.44.033.868.06 1.285.082v3.5a15.94 15.94 0 0 0-1.806-.099c-.671 0-1.151.148-1.44.445-.29.298-.434.799-.434 1.503v1.023h3.402v3.137h-3.402v13.932h-4.931V14.773h-2.951v-3.137h2.95v-1.32c0-1.519.498-2.762 1.494-3.731.995-.969 2.5-1.453 4.514-1.453.439 0 .879.017 1.319.05zm-11.98 6.073c.325 0 .684.056 1.078.167v4.414a9.827 9.827 0 0 0-.834-.117 9.224 9.224 0 0 0-.937-.05c-.903 0-1.667.145-2.292.435a3.943 3.943 0 0 0-1.51 1.187 4.678 4.678 0 0 0-.816 1.756 9.2 9.2 0 0 0-.243 2.173v7.791H81.75V11.723h4.687v3.21h.07c.23-.535.543-1.03.938-1.488a6.082 6.082 0 0 1 1.353-1.17 6.743 6.743 0 0 1 1.633-.752 6.084 6.084 0 0 1 1.805-.268zm-26.422 7.041a5.35 5.35 0 0 1 .22-1.135c.123-.423.338-.824.642-1.203.305-.378.71-.695 1.217-.951.508-.256 1.145-.384 1.911-.384 1.172 0 2.046.312 2.621.934.575.624.975 1.537 1.201 2.74h-7.813zm11.178-3.92c-.725-.951-1.652-1.71-2.78-2.274-1.128-.565-2.451-.847-3.97-.847-1.36 0-2.596.233-3.713.697a8.79 8.79 0 0 0-2.883 1.91 8.367 8.367 0 0 0-1.864 2.871c-.437 1.107-.656 2.303-.656 3.586 0 1.329.213 2.546.639 3.653a8.238 8.238 0 0 0 1.813 2.855c.782.797 1.737 1.411 2.865 1.843 1.128.431 2.394.647 3.798.647 2.026 0 3.752-.442 5.18-1.328 1.426-.885 2.486-2.357 3.176-4.416H74.28c-.161.532-.599 1.035-1.312 1.51-.714.478-1.566.715-2.555.715-1.381 0-2.44-.343-3.177-1.03-.737-.685-1.139-1.792-1.208-3.32h12.88c.09-1.328-.025-2.6-.346-3.818a9.2 9.2 0 0 0-1.571-3.254zm-23.128.372c-.258.46-.6.818-1.026 1.07-.427.252-.92.422-1.481.51a11.33 11.33 0 0 1-1.75.131H45.5V9.42h4.106c.605 0 1.189.043 1.75.13a4.16 4.16 0 0 1 1.48.51c.426.253.769.61 1.027 1.07.257.46.387 1.064.387 1.81 0 .745-.13 1.349-.387 1.81zm4.057-7.272c-.68-.704-1.563-1.27-2.647-1.7-1.085-.43-2.399-.644-3.945-.644h-11.14v23.573h5.431v-8.452h5.71c1.545 0 2.86-.214 3.944-.643 1.084-.43 1.967-.996 2.647-1.7a6.457 6.457 0 0 0 1.488-2.427 8.586 8.586 0 0 0 .467-2.79c0-.968-.156-1.904-.467-2.807a6.491 6.491 0 0 0-1.488-2.41z" fill="#151746"/><path d="M31.438 14.1v15.549c0 .831-.7 1.505-1.563 1.505h-4.687c-.863 0-1.563-.674-1.563-1.505v-15.42c0-2.005 1.57-3.755 3.646-3.884 2.275-.143 4.166 1.593 4.166 3.755zm-11.25 7.127v8.388c0 .85-.7 1.54-1.563 1.54h-4.687c-.863 0-1.563-.69-1.563-1.54v-8.256c0-2.05 1.57-3.84 3.646-3.973 2.275-.145 4.166 1.63 4.166 3.841zM8.624 29.134v.502c0 .838-.7 1.518-1.562 1.518H2.375c-.863 0-1.563-.68-1.563-1.518v-.371c0-2.023 1.57-3.789 3.647-3.92 2.275-.142 4.166 1.609 4.166 3.79zM4.719 15.847c2.157 0 3.906 1.713 3.906 3.827 0 2.113-1.749 3.827-3.906 3.827-2.158 0-3.907-1.714-3.907-3.827 0-2.114 1.75-3.827 3.907-3.827zM16.28 8.193c2.158 0 3.907 1.714 3.907 3.827 0 2.114-1.75 3.827-3.907 3.827s-3.906-1.713-3.906-3.827c0-2.113 1.75-3.827 3.906-3.827zM27.531.846c2.158 0 3.907 1.713 3.907 3.827 0 2.113-1.75 3.827-3.907 3.827s-3.906-1.714-3.906-3.827c0-2.114 1.75-3.827 3.906-3.827z" fill="#007CC7"/></g><defs><clipPath id="clip0_402_1016"><path fill="#fff" transform="translate(.5 .234)" d="M0 0h240v31.533H0z"/></clipPath></defs></svg>