<svg xmlns="http://www.w3.org/2000/svg" xml:space="preserve" width="100%" height="100%" style="fill-rule:evenodd;clip-rule:evenodd;stroke-linejoin:round;stroke-miterlimit:1.41421" version="1.1" viewBox="0 0 942 942"><g><path d="M470.606 912.633c-243.738 0-442.032-198.294-442.032-442.032 0-243.735 198.294-442.028 442.032-442.028 243.739 0 442.032 198.293 442.032 442.028 0 243.738-198.293 442.032-442.032 442.032Zm332.767-774.798C714.488 48.95 596.309 0 470.606 0 344.904 0 226.724 48.95 137.84 137.835 48.954 226.718 0 344.898 0 470.601 0 596.307 48.954 714.487 137.84 803.37c88.884 88.885 207.064 137.836 332.766 137.836 125.703 0 243.882-48.951 332.767-137.836 88.886-88.883 137.838-207.063 137.838-332.769 0-125.703-48.952-243.883-137.838-332.766Z" style="fill:#ea4524;fill-rule:nonzero"/><path d="M73.486 474.296c-5.382 4.804-9.033 7.203-10.955 7.203v8.651h29.144v-8.651H76.108c2.497-1.303 5.665-4.034 9.497-8.183 3.833-4.154 5.75-8.726 5.75-13.721 0-4.209-1.348-7.374-4.048-9.5-2.7-2.123-6.163-3.185-10.393-3.185-4.4 0-7.514.48-9.34 1.441-1.826.961-3.699 2.403-5.621 4.324l5.766 5.764c1.922-2.304 4.613-3.46 8.071-3.46 3.651 0 5.959 1.013 6.92 3.03.96 2.017 1.009 4.034.143 6.051-.865 2.021-3.988 5.429-9.367 10.236ZM120.673 478.187c-1.441 2.595-3.113 3.89-5.017 3.89-1.941 0-3.632-1.295-5.072-3.89-1.441-2.595-2.163-5.816-2.163-9.659 0-3.843.722-7.059 2.163-9.654 1.44-2.595 3.113-3.895 5.016-3.895 1.941 0 3.632 1.3 5.073 3.895 1.44 2.595 2.163 5.811 2.163 9.654s-.723 7.064-2.163 9.659Zm-5.044-31.277c-4.805 0-8.649 2.065-11.531 6.196-2.884 4.133-4.323 9.276-4.323 15.422 0 6.131 1.439 11.269 4.323 15.408 2.882 4.141 6.726 6.214 11.531 6.214 4.822 0 8.672-2.066 11.543-6.198 2.875-4.13 4.309-9.273 4.309-15.424 0-6.146-1.434-11.289-4.309-15.422-2.871-4.131-6.721-6.196-11.543-6.196ZM833.832 490.15v-43.27h-8.618v.03l-11.532 11.529 5.765 5.768 5.767-5.768v31.711h8.618ZM861.561 472.016h-10.52l10.52-13.776v13.776Zm8.62 0V446.88h-8.62v.058l-19.601 24.791.259.287h-.286v8.618h19.628v9.516h8.62v-9.516h5.822v-8.618h-5.822ZM193.213 702.871l-11.338-15.04 11.421-8.61 11.421 15.144c3.06 4.356 2.87 7.928-.574 10.711-3.957 2.797-7.6 2.06-10.93-2.205Zm18.408 11.899c10.313-7.774 10.744-17.93 1.295-30.463l-17.656-23.415-53.713 40.496 8.099 10.743 22.202-16.738 9.586 12.712c9.43 12.509 19.492 14.729 30.187 6.665ZM247.844 779.864l-15.774-12.589 23.94-13.597-8.166 26.186Zm-49.176-8.842 11.215 8.953 9.591-5.545 23.829 19.026-3.281 10.579 11.21 8.89 20.946-69.293-10.514-8.394-62.996 35.784ZM343.23 806.627c-2.108 4.365-5.651 5.485-10.629 3.365l-17.203-7.67 5.824-13.063 17.324 7.721c4.788 2.328 6.35 5.545 4.684 9.647Zm-2.379-22.419-26.789-11.938-27.384 61.443 12.289 5.478 11.317-25.397 11.225 5.003 3.385 31.949 14.091 6.279-3.381-33.616c8.623.929 14.909-3.045 18.864-11.918 5.258-11.796.718-20.893-13.617-27.283ZM381.124 813.109l22.073 3.934-9.6 53.862 13.246 2.36 9.598-53.862 22.077 3.934 2.202-12.361-57.397-10.229-2.199 12.362ZM465.018 811.2l1.091 67.302 13.409-.215-1.091-67.303-13.409.216ZM551.694 834.766c-5.128-2.244-10.54-3.146-16.232-2.703-5.455.096-9.08-.602-10.876-2.097-1.796-1.491-2.191-3.623-1.182-6.393 1.009-2.771 4.159-4.645 9.451-5.621 5.292-.977 9.735.028 13.327 3.009l7.189-10.448c-3.482-2.395-7.051-4.018-10.703-4.862-3.654-.846-8.551-.702-14.696.433-5.291.977-10.117 3.7-14.473 8.168-4.359 4.469-6 9.631-4.918 15.479 1.194 6.47 4.242 10.619 9.139 12.449 4.898 1.834 10.049 2.556 15.451 2.165 5.987-.499 9.941.366 11.856 2.599 1.918 2.228 2.378 4.727 1.385 7.494-.992 2.77-4.43 4.695-10.31 5.78-7.166.717-12.542-.419-16.134-3.404l-7.192 10.452c3.485 2.395 7.448 4.094 11.887 5.098 4.441 1.004 9.735.941 15.882-.196 6.466-1.195 11.779-4.153 15.941-8.873 4.158-4.719 5.75-9.726 4.772-15.02-1.248-6.761-4.438-11.265-9.564-13.509ZM632.613 817.322l-18.339 8.426-1.381-27.496 19.72 19.07Zm-33.648-32.409 3.637 72.359 13.04-5.995-.638-11.054 27.708-12.736 7.974 7.689 12.982-6.015-52.479-49.868-12.224 5.62ZM691.447 725.094l27.147 32.251-59.397-5.102-3.429 2.885 43.318 51.467 10.292-8.666-26.858-31.906 58.763 5.051 3.776-3.177-43.319-51.465-10.293 8.662ZM786.398 685.284c-5.575-4.022-10.992-5.075-16.25-3.158-5.257 1.922-9.791 5.011-13.601 9.265-3.877 3.839-6.98 5.84-9.308 5.999-2.332.163-4.088-1.105-5.274-3.803-1.184-2.703-.203-6.234 2.946-10.595 3.151-4.365 7.056-6.709 11.714-7.032l-2.023-12.52c-4.174.673-7.874 1.965-11.098 3.878-3.225 1.914-6.665 5.401-10.32 10.467-3.151 4.366-4.758 9.667-4.82 15.91-.063 6.242 2.319 11.101 7.142 14.586 5.332 3.85 10.402 4.743 15.209 2.682 4.807-2.06 9.027-5.098 12.66-9.112 3.986-4.497 7.443-6.602 10.369-6.315 2.926.288 4.986 1.774 6.18 4.461 1.194 2.687.043 6.457-3.457 11.305-4.685 5.465-9.357 8.363-14.016 8.686l2.023 12.521c4.173-.674 8.213-2.181 12.116-4.524 3.906-2.344 7.685-6.048 11.345-11.118 3.848-5.33 5.644-11.142 5.389-17.428-.254-6.286-2.563-11.006-6.926-14.155ZM312.266 171.701l-16.161-35.512 27.655 12.048 9.079-28.766 16.203 35.491 12.244-5.573-27.864-61.224-4.081 1.857-12.826 42.298-40.277-18.131-4.082 1.858 27.863 61.226 12.247-5.572ZM434.045 134.007l-2.213-12.362-35.313 6.316-2.694-15.053 26.53-4.744-2.199-12.318-26.533 4.746-2.527-14.127 35.406-6.33-2.211-12.361-48.64 8.743 11.833 66.173 48.561-8.683ZM476.128 78.715l12.448.706c11.909.677 17.495 7.733 16.763 21.167-.793 13.429-7.144 19.822-19.055 19.174l-12.449-.708 2.293-40.339Zm42.644 22.636c1.274-22.416-8.539-34.217-29.43-35.405l-25.879-1.471-3.819 67.204 25.878 1.47c20.893 1.188 31.979-9.411 33.25-31.798ZM572.557 78.526l-13.02-3.207-16.098 65.361 13.019 3.207 16.099-65.361ZM630.231 118.087l-1.618 27.384-18.339-8.419 19.957-18.965Zm-30.461 28.947 27.714 12.722-.632 11.057 13.018 5.928 3.632-72.3-12.227-5.613-52.518 49.91 13.043 5.987 7.97-7.691ZM88.259 552.518a387.544 387.544 0 0 0 26.251 79.525l26.118-11.591a359.511 359.511 0 0 1-24.422-73.885l-27.947 5.951ZM243.283 188.55l-18.589-21.701C158.046 220.91 109.453 296.404 89.555 382.754l27.919 6.08c18.555-80.165 63.799-150.211 125.809-200.284ZM802.867 620.452l26.117 11.591a387.662 387.662 0 0 0 26.25-79.525l-27.947-5.951a359.566 359.566 0 0 1-24.42 73.885ZM826.021 388.834l27.919-6.08c-19.899-86.35-68.493-161.844-135.143-215.905l-18.584 21.701c62.009 50.073 107.252 120.119 125.808 200.284ZM520.499 448.226c-.019.002-.11.011-.231.062l.298 1.069h.002l-.069-1.131ZM278.567 658.471c-3.348-3.463-5.012-7.455-4.948-11.86.02-1.439.431-3.018 1.156-4.437 1.304-2.546 4.323-2.865 6.171-.632.824.992 1.524 2.068 2.204 3.107.329.503.658 1.007 1.001 1.498.49.711.971 1.421 1.454 2.135 1.203 1.769 2.445 3.601 3.768 5.298 1.412 1.805 3.308 2.923 5.636 3.326 2.26.39 4.082-.172 5.508-1.822 1.123-1.299 2.308-2.715 3.37-4.227 1.803-2.575 4.18-4.199 7.062-4.82l2.894-.629c4.415-.967 8.98-1.965 13.542-2.595 12.531-1.738 24.753-2.631 36.324-2.648h.295c6.541 0 12.727.401 18.385 1.193 7.208 1.004 14.487 2.289 21.524 3.532 3.061.541 6.12 1.082 9.185 1.603 5.072.861 9.577 2.919 14.777 5.739l1.386.736c1.036.546 2.075 1.092 3.068 1.704 3.065 1.884 5.74 3.137 8.829 3.137h.002c1.078 0 1.987.366 2.752.721 1.1.518 1.465 1.25 1.578 1.775.115.533.081 1.366-.728 2.322a8.663 8.663 0 0 1-1.732 1.526c-2.935 1.977-6.371 3.414-10.5 4.39a8.286 8.286 0 0 1-1.919.223c-1.32 0-2.686-.307-4.175-.94-1.782-.757-3.55-1.545-5.323-2.332-1.211-.539-2.423-1.08-3.637-1.608-2.722-1.182-5.362-1.76-8.071-1.766-2.652-.007-5.308-.025-7.962-.043-5.71-.04-11.424-.08-17.133-.004-4.962.06-9.958 1.072-14.791 2.053l-.51.102c-7.832 1.588-15.631 1.769-23.593 1.826l-3.157.008-6.445-.042-2.657.097c-2.803.097-5.606.2-8.409.355-5.869.33-11.856-.497-18.818-2.535-1.361-.401-2.615-.603-3.723-.603l-.234.002c-.792.021-1.738.365-2.15.781-1.949 1.965-4.2 2.577-7.165 1.893-5.879-1.348-10.491-3.815-14.091-7.539Zm201.835-40.361c-2.702-2.645-2.813-5.659-.302-8.273 1.638-1.706 3.681-2.683 5.905-2.83 2.68.012 4.582 1.279 5.73 3.769.198.43.439.582 1.137.937 2.021 1.033 3.978 2.067 5.764 3.401 4.127 3.082 7.618 6.73 10.382 10.843.588.877 1.025 1.827 1.449 2.743.278.6.552 1.202.874 1.775.687 1.234 1.428 2.439 2.169 3.645l.947 1.558c.241.399.497.791.751 1.184.623.956 1.266 1.942 1.715 3.05.418 1.034.409 1.89-.028 2.537-.509.753-1.399 1.06-2.834.882-1.315-.154-2.673-.318-4.008-.353h-.007c-1.558 0-2.526.659-3.006 1.964-.483 1.317-.885 2.665-1.289 4.012-.251.839-.501 1.677-.772 2.511l-.22.685c-.489 1.516-.994 3.087-1.632 4.596-.756 1.8-1.856 2.715-3.266 2.715l-.166-.006c-2.183-.119-2.752-2.367-2.937-3.105l-.496-1.951c-.731-2.854-1.487-5.803-1.948-8.777-1.385-8.912-3.998-15.661-8.22-21.245-1.833-2.421-4.005-4.623-5.692-6.267Zm-65.431 154.506c27.241-48.897 84.142-130.653 177.426-173.635-9.003-6.347-16.559-12.637-24.527-19.274a1523.844 1523.844 0 0 0-5.302-4.403c-17.64-14.572-16.632-28.802-16.147-35.64.066-.932.125-1.744.125-2.418 0-3.677-1.629-6.608-2.59-8.014l-.372.328c-2.364 2.071-4.97 3.692-7.746 4.821a18.89 18.89 0 0 0-2.089 1.035c-.626.387-2.702 2.055-1.574 6.369.887 3.38 1.422 5.296 2.1 5.296.522 0 1.443-.429 1.746-.571 1.485-.616 2.682-.91 3.701-.91 1.622 0 2.881.736 3.642 2.125.456.82.119 1.596-1.003 2.293-.092.057-.187.108-.256.164-.916.793-1.821 1.602-2.728 2.408-2.139 1.906-4.348 3.877-6.699 5.627-3.506 2.606-7.147 5.145-10.664 7.599-2.329 1.626-4.657 3.249-6.963 4.902-1.003.719-1.927 1.535-2.906 2.4-.485.43-.973.858-1.466 1.275.355.464.632.843.909 1.222.332.451.665.907 1.019 1.339 3.079 3.733 7.218 6.246 11.231 8.404 2.324 1.248 4.183 2.513 5.689 3.867 2.595 2.323 3.846 5.508 3.519 8.958-.565 5.923-4.645 9.899-10.152 9.899-1.375 0-2.799-.243-4.235-.724-4.561-1.526-8.369-4.461-11.981-9.239-3.062-4.049-6.166-8.154-9.379-12.043-1.047-1.268-2.489-2.333-3.885-3.366l-.366-.268c-.483-.36-1.373-.754-2.189-.384-2.887 1.3-5.848 1.572-8.624 1.673-1.185.044-2.457.294-3.678.726-.356.125-1.496.646-1.167 1.95.363 1.444.947 2.824 1.686 3.993.921 1.445 1.952 2.874 2.95 4.257.72.998 1.444 2 2.136 3.02.651.96 1.209 2.044 1.61 3.131.333.903.283 1.756-.136 2.408-.411.638-1.136 1.024-2.044 1.091-1.344.097-2.688-.062-3.698-.49-2.555-1.079-5.001-2.358-6.846-3.346-4.188-2.253-9.311-4.542-15.016-4.36l-.474.009c-2.714 0-5.338-.767-7.592-2.214-2.599-1.67-3.851-3.892-3.717-6.597.026-.56 0-.814-.022-.927-.044.009-.189-.004-.437-.004-.138 0-.287.004-.453.013a4.082 4.082 0 0 0-.775.1c-4.746 1.178-9.035 3.483-12.751 6.85-.759.691-1.427 1.819-2.041 3.448-.464 1.239.41 2.163.971 2.605.844.669 1.773.707 2.687.132.769-.486 1.482-1.078 2.236-1.707.371-.31.745-.621 1.124-.918.279-.22.552-.451.825-.683.712-.603 1.448-1.228 2.323-1.691 3.008-1.597 6.379-.431 7.85 2.662.209.434.373.889.542 1.345.169.471.338.944.575 1.383 1.024 1.884 2.145 3.898 3.408 5.858.301.467.988 1.015 1.972.784 3.348-.793 6.576-.065 10.367 2.408 5.606 3.65 10.206 7.425 14.063 11.539 2.764 2.948 4.685 5.912 5.878 9.05 1.437 3.78 1.23 7.629 1.031 11.351l-.078 1.529c-.034.825-.146 3.338-3.117 3.338-.373 0-.802-.038-1.291-.114-6.412-.985-11.324-2.87-15.463-5.931-3.221-2.38-6.634-4.637-9.935-6.819l-1.972-1.303c-4.017-2.661-8.171-5.408-11.707-8.923-1.382-1.372-3.083-3.284-3.976-5.899-.485-1.418-1.053-2.234-1.555-2.234-.218 0-.862.133-2.051 1.359-1.414 1.458-2.657 3.196-3.859 4.872l-.369.516c-2.508 3.492-5.313 3.754-8.237.752-1.222-1.255-2.241-2.687-3.225-4.071l-.57-.804a68.138 68.138 0 0 1-1.698-2.5c-.888-1.353-1.73-2.629-2.708-3.805-3.008-3.634-5.646-4.012-9.687-1.514-4.373 2.707-9.262 4.897-14.529 6.513-9.068 2.78-17.09 3.747-24.808 3.014-7.677-.727-15.745-1.947-24.669-3.729-2.157-.435-3.791-1.374-4.859-2.798-.743-.989-1.763-2.417-2.553-4.037-28.101 9.974-63.59 30.353-65.982 37.97-1.47 4.688-1.254 6.996-.95 8.012l.033.046c.228.321.455.645.657.976l.721.537-.231.345a18.264 18.264 0 0 1 1.777 5.185c1.159 6.373 3.891 11.206 8.36 14.784.996.795 1.92 1.952 2.829 3.53 7.25 8.441 9.122 29.099 9.765 38.855 36.509 26.711 79.103 45.57 125.286 54.057ZM626.683 619.035c-74.472 33.479-124.051 110.125-147.908 147-3.067 4.739-5.587 8.636-7.645 11.637 95.96-.162 181.722-44.571 237.968-113.866-15.429-13.61-46.258-27.919-76.18-41.803-2.156-1-4.23-1.988-6.235-2.968Z" style="fill:#ea4524;fill-rule:nonzero"/><path d="M580.82 419.339c-.471 2.093-.944 4.188-1.428 6.279-.124.518-.334 1.058-.635 1.655-.195.388-.795 1.592-1.997 1.592-1.043 0-1.71-.951-1.932-1.263a17.045 17.045 0 0 1-1.235-2.073c-2.217-4.359-5.852-7.65-11.107-10.059-3.044-1.393-4.013-3.219-3.346-6.301.6-2.778 1.423-6.582 5.721-7.488 1.801-.379 3.65-.388 5.178-.009 6.869 1.696 11.512 7.996 11.292 15.321l-.511 2.346Zm-14.868 8.407c-.165 4.437-1.94 6.69-5.284 6.69-.95 0-2.021-.182-3.266-.556-.969-.286-1.923-.646-2.874-1.006l-.618-.234c-4.411-1.651-7.033-4.969-7.794-9.864a6.626 6.626 0 0 1 .046-2.267c.803-3.978 5.113-7.744 9.225-8.057 2.26-.177 4.024.736 5.07 2.606.249.448.455.916.66 1.384.194.442.385.886.628 1.299.686 1.161 1.465 2.479 2.364 3.593 1.337 1.657 1.941 3.755 1.843 6.412ZM231.557 663.113c.899-.838 1.951-1.8 3.21-2.943 2.505-2.277 5.937-5.396 6.33-6.104l1.085-1.993c1.536-2.826 3.124-5.744 4.801-8.56.735-1.226 1.828-2.365 3.081-3.209 16.153-10.874 35.483-23.483 56.374-34.542 5.771-3.054 11.968-6.191 18.739-8.081 2.009-.559 8.604-3.463 10.07-4.645 6.783-5.47 13.593-8.947 20.82-10.632 7.234-1.69 14.534-3.683 21.594-5.61l5.17-1.41c1.998-.541 4.007-1.268 5.946-1.972l1.337-.48c.708-.258 1.473-.625 2.405-1.164 2.699-1.566 3.252-3.115 2.195-6.142-.601-1.714-1.168-3.331-1.403-5.028-.421-3.028.452-5.999 2.524-8.596.656-.823.521-1.345.089-1.924l-.372-.503c-.787-1.075-1.53-2.088-2.435-2.863-3.772-3.238-5.944-7.639-6.643-13.458-.202-1.653-.386-3.611-.224-5.581.099-1.221.621-2.601 1.435-3.775.797-1.155 1.007-2.239.651-3.429-.354-1.201-.763-2.389-1.167-3.574-.465-1.344-.926-2.691-1.315-4.056a51.042 51.042 0 0 1-1.38-6.484c-.143-1.004.179-2.247.82-3.172 1.678-2.443 2.664-5.426 3.105-9.38.297-2.69.406-5.552.337-8.745-.072-3.355-1.659-6.097-4.59-7.929-2.959-1.844-4.923-4.31-6.184-7.752-1.993-5.436-4.767-9.849-8.48-13.489-2.458-2.422-5.268-4.143-8.585-5.26l-.608-.207c-2.857-.964-5.813-1.964-8.654-3.148-1.716-.719-3.269-1.853-4.587-2.86-1.55-1.181-2.568-2.909-3.027-5.138a37.504 37.504 0 0 0-.448-1.894c-1.205-4.646-4.073-7.436-8.762-8.534-2.985-.699-4.25-2.143-4.372-4.987-.108-2.745.1-5.513.305-8.191l.031-.437c.172-2.26.492-4.525.8-6.716l.047-.333c.311-2.228-.415-4.12-2.156-5.625-2.696-2.334-5.368-4.368-7.943-6.047a136.642 136.642 0 0 0-10.936-6.443c-4.95-2.617-8.071-6.796-9.28-12.424-.985-4.606-1.867-9.307-2.714-13.853l-.572-3.038c-1.152-6.116-2.464-10.72-4.253-14.93-1.881-4.414-5.001-6.691-9.542-6.959l-.335-.03c-1.839-.234-2.988-.85-3.513-1.883-.523-1.022-.35-2.292.525-3.881.907-1.644 1.938-3.336 3.243-5.327 1.123-1.714 1.005-3.213-.383-4.859-.52-.616-1.059-1.216-1.596-1.815-.637-.713-1.275-1.427-1.886-2.163-2.103-2.555-2.219-4.045-.545-6.935l.711-1.217c.687-1.168 1.372-2.338 2.003-3.538.698-1.331.898-2.597.628-3.981-.224-1.131.41-2.505 1.121-3.224 1.488-1.499 3.006-2.805 4.511-3.884 6.086-4.367 12.211-8.685 18.335-13.004l1.951-1.376c3.199-2.256 7.108-4.651 11.828-5.296.48-.077.741-.114.994-.114l.271.013c4.601.436 8.317-2.114 11.224-4.628 5.198-4.49 9.539-9.982 12.911-16.325 1.918-3.607 4.549-6.082 7.822-7.36 3.181-1.239 6.649-2.298 10.313-3.149 4.931-1.145 9.982-2.073 14.866-2.969l.68-.124c2.455-.45 4.824-.21 6.94.7 1.128.487 2.688 1.377 3.208 3.492 1.844 7.514 6.557 11.597 14.008 12.138 4.368.313 8.708 1.472 13.272 3.547l2.694 1.228c1.646.753 3.29 1.506 4.947 2.234 4.076 1.797 8.093 2.513 12.154 2.111 5.54-.553 9.831 1.65 12.348 6.296 2.403 4.435 6.212 7.757 11.988 10.451 4.772 2.228 9.474 4.642 13.846 6.918 4.554 2.369 7.924 6.146 10.013 11.224l.797 1.93c.794 1.918 1.592 3.836 2.32 5.776.85 2.25 2.472 3.352 4.959 3.367h.002c6.522 0 12.186-2.24 17.011-6.659 1.719-1.571 1.883-2.663.703-4.67-1.268-2.156-2.672-4.041-4.171-5.607-6.172-6.43-13.403-11.958-22.106-16.901a3596.864 3596.864 0 0 1-27.322-15.7 41.623 41.623 0 0 1-4.689-3.199c-2.139-1.681-2.848-3.287-2.318-5.562a20.886 20.886 0 0 1-.949 1.538c-1.135 1.66-2.945 2.339-4.782 1.778-2.17-.668-4.736-1.491-7.299-2.538-2.578-1.051-5.56-2.3-8.319-3.829a16.444 16.444 0 0 1-4.606-3.829c-1.452-1.765-3.035-2.581-5.293-2.728-5.813-.37-12.405-.792-18.601-2.737-2.337-.732-5.029-1.757-7.27-3.814a10.506 10.506 0 0 1-1.736-2.018c-2.071-3.213-1.508-6.197 1.582-8.404 3.096-2.211 6.559-3.105 10.438-3.965 2.526-.561 5.066-1.049 7.608-1.536 1.328-.254 2.654-.51 3.978-.774a12.08 12.08 0 0 0 1.762-.487c1.415-.519 1.655-.875 1.602-2.384-.109-3.091.547-4.897 4.321-5.589 4.007-.739 7.887-1.266 11.537-1.564 9.486-.779 19.597-1.054 29.738-.837l.323.004c3.073 0 5.99-.891 9.082-1.835l.652-.2c3.88-1.176 7.443-2.081 10.893-2.767 3.659-.734 7.148.373 10.198 3.242 1.897 1.787 3.445 3.93 4.878 6.791.643-1.507 1.856-2.572 3.579-3.127 2.87-.917 5.359-.651 7.387.78 1.98 1.392 4.009 2.817 5.752 4.546 10.395 10.297 19.28 22.346 26.406 35.812a26.673 26.673 0 0 1 2.752 8.144c.261 1.56.943 3.176 1.867 4.432 2.343 3.186 4.972 6.456 8.274 10.292 2.178 2.537 4.498 5.046 6.74 7.473l2.433 2.641c3.519 3.836 5.087 8.409 4.802 13.978a324.216 324.216 0 0 0-.367 12.262c-.102 8.113 1.847 14.912 5.961 20.788 2.747 3.921 3.018 8.565.809 13.8-1.638 3.858-4.165 7.403-7.519 10.541-2.141 2.002-4.437 3.88-6.657 5.694-.995.812-1.986 1.622-2.968 2.446-1.268 1.07-2.886 1.233-4.321.439-1.105-.611-2.48-1.371-3.549-2.416-1.737-1.69-3.444-3.352-4.748-5.315-3.136-4.724-7.554-7.415-13.506-8.228-1.62-.223-3.231-.554-4.787-.873l-1.812-.365c-2.593-.503-4.551-1.72-5.666-3.518-3.52-5.686-9.256-7.521-14.407-8.565l-.743-.152c-5.055-1.026-10.284-2.087-15.439-2.492-6.879-.539-13.717 1.626-19.716 3.52-9.146 2.893-17.875 7.076-26.687 12.791-1.584 1.025-2.642 2.264-3.237 3.788-1.204 3.085-2.888 5.312-5.293 7.01-1.916 1.352-3.147 3.373-3.558 5.844-.158.967.053 1.717.684 2.432 1.893 2.141 1.839 4.196-.168 6.281-2.31 2.392-5.287 3.123-7.324 3.465-3.176.531-5.381 1.425-7.152 2.902-.746.62-1.589 1.347-2.154 2.17-1.168 1.705-2.728 2.794-4.767 3.325-.091.024-.173.05-.253.079l-.526.174c-1.126.362-1.364.524-1.404.968-.066.688.458 1.097 1.584 1.807 1.33.844 2.461.853 3.633-.011.276-.204.559-.396.842-.587.392-.264.785-.527 1.146-.828 3.554-2.967 7.905-4.699 13.686-5.45 5.804-.752 11.432-.69 16.838.185 2.929.476 5.753-.235 8.287-2.093 1.417-1.036 2.748-2.26 3.99-3.424 1.359-1.27 3.009-2.567 4.957-2.567 1.501 0 2.984.718 4.805 2.325 2.697 2.373 5.43 2.915 9.01 1.764 5.1-1.639 10.006-1.088 15.349 1.755 4.267 2.262 8.762 4.31 13.111 6.292 1.465.668 2.931 1.336 4.389 2.013 1.018.471 2.169.796 3.26 1.089 5.131 1.379 9.193 4.488 12.421 9.504.505.783.834 1.626 1.154 2.439.887 2.269.607 4.702-.76 6.706-1.746 2.56-4.974 3.912-7.764 3.217-2.313-.574-4.544-1.478-6.698-2.351l-1.096-.442c-.945-.378-1.862-.825-2.781-1.274-.887-.433-1.772-.868-2.687-1.23-3.137-1.242-4.537-.931-6.8 1.777l-.4.476c-.78.939-1.59 1.911-2.487 2.804-2.091 2.082-4.851 2.788-7.719 1.975-1.21-.347-2.363-.823-3.484-1.285a43.897 43.897 0 0 0-2.312-.904l-.349-.121c-1.708-.594-3.474-1.209-5.222-1.573-3.866-.806-5.768-2.692-6.36-6.309-.48-2.923-1.831-5.47-4.258-8.016l-.824-.871c-.892-.944-1.783-1.888-2.723-2.783-.643-.612-1.003-.659-1.096-.659-.251 0-.574.453-.82 1.155-.184.525-.33 1.114-.434 1.748l-.449 2.714c-.425 2.539-.866 5.164-1.12 7.742-.15 1.496-.278 3.691.309 5.467 1.971 5.968 1.541 12.026-1.318 18.522-.949 2.151-1.234 3.823-.925 5.421.528 2.747 2.822 4.57 6.132 4.873 4.087.373 8.96-.03 13.46-.466l1.617-.156c1.501-.145 3.012-.194 4.547-.242l.875-.028c-.01-.097-.024-.193-.034-.291-.253-2.578.961-4.284 3.242-4.566.914-.116 2.08-.181 3.193-.181 3.678 0 4.437.657 4.723.905l.888.785c1.272 1.135 2.372 2.119 3.78 2.68 5.531 2.209 10.452 4.578 15.055 7.247 2.238 1.304 4.011 1.742 5.933 1.383l.008.031c.876-.43 1.77-.657 2.628-.657 2.388 0 4.048 1.735 5.091 3.041l.304.331c2.442 2.678 3.78 2.753 6.192.301 1.778-1.809 3.34-3.952 4.848-6.025l.883-1.205c.775-1.06 1.496-2.215 2.194-3.331.415-.666.832-1.333 1.261-1.987.228-.348.505-.62.748-.861l.25-.254c.357-.35.795-.702 1.364-.702h.541l.463.479c.491.601.365 1.42.115 2.599-.032.156-.061.288-.071.37-.578 4.637-2.085 8.486-4.479 11.441-2.98 3.671-4.532 7.869-4.89 13.212-.27 3.994-2.553 6.02-6.69 5.581-1.434-.148-2.842-.457-4.207-.758-1.069-.235-2.138-.471-3.214-.625-5.847-.847-10.726-3.494-16.251-7.207-1.831-1.233-3.714-2.397-5.595-3.561-2.387-1.476-4.855-3.007-7.195-4.665-2.053-1.455-3.93-3.158-5.743-4.808-.744-.673-1.483-1.347-2.233-2.001-.321.395-1.099 1.738-1.681 2.747-1.314 2.273-2.802 4.847-4.797 6.029-2.396 1.408-4.962 2.042-7.629 1.855-.742-.048-1.63-.01-1.982.568-.289.479-.182 1.379.267 2.244.732 1.408 1.818 2.369 3.229 2.852 2.499.855 4.659.851 6.801-.023 1.89-.762 3.994-1.477 6.627-2.246 2.531-.729 4.934.049 6.318 2.052 2.579 3.712 6.382 5.325 9.762 6.414 1.795.581 3.518 1.528 4.851 2.665 1.615 1.373 2.456 3.001 2.436 4.708-.019 1.701-.894 3.304-2.534 4.636-1.138.923-2.942 2.149-5.089 2.761-3.391.961-7.117 1.065-10.974.308-1.473-.29-2.814-.995-3.582-1.878-1.282-1.478-2.977-2.197-5.34-2.266l-3.181-.095c-6.301-.198-12.814-.397-19.19-.125-4.654.2-9.357 1.998-13.981 5.342-1.492 1.077-2.495 2.373-3.065 3.964-.664 1.84-1.382 3.797-2.24 5.685-.556 1.219-1.261 2.624-2.275 3.802-.916 1.067-2.205 1.68-3.533 1.68-1.622 0-3.094-.888-3.941-2.368-.745-1.311-1.014-2.879-1.165-4.098-.027-.242-.105-.878-.197-1.016v.005c-.014 0-.162-.075-.676-.135-1.222-.141-2.645-.175-4.092-.122-4.677.174-8.986-1.255-12.865-2.803a9.48 9.48 0 0 1-1.987-1.112c-2.687-1.934-3.311-5.114-1.513-7.731.994-1.445 2.262-2.857 3.768-4.204 1.36-1.215 2.78-2.364 4.201-3.516a147.62 147.62 0 0 0 3.155-2.603c4.686-4.009 7.82-8.932 9.318-14.64.197-.762.173-1.21.122-1.452-.794-3.682-.034-7.257.745-10.318 1.135-4.498 2.738-7.728 5.199-10.472 2.497-2.79 3.615-6.544 4.698-10.175l.183-.602c.147-.502.263-1.017.378-1.531.073-.326.147-.652.227-.977.16-.63.015-.892-.617-1.121-.599-.214-1.157-.349-1.66-.397l-.735-.071c-1.704-.167-3.47-.34-5.181-.355-1.066 0-2.175.28-3.154.527-.724.184-1.337.45-1.768.77-4.954 3.694-10.807 4.483-15.974 5.178-2.626.351-5.372.938-8.163 1.749-3.598 1.042-5.942 3.221-6.966 6.473-.594 1.891-.116 2.839 1.774 3.497.841.295 1.807.516 2.951.678 3.767.53 7.442 2.104 11.233 4.812 2.519 1.8 5.31 3.483 8.64 3.617 1.997.077 3.708 1.557 4.452 2.902.587 1.056.65 2.089.18 2.905a388.61 388.61 0 0 0-2.831 5.051l-1.57 2.823c-.212.379-.419.765-.623 1.153-.55 1.035-1.119 2.108-1.847 3.086-1.272 1.71-2.423 2.934-3.623 3.854-5.009 3.834-9.061 8.157-12.381 13.224-2.369 3.611-2.758 7.653-1.184 12.357.448 1.34-.191 2.971-.808 4.106-1.07 1.975-3.137 4.335-5.145 4.857-.753.197-1.498.462-2.236.745-.942.403-1.572 1.104-1.884 2.128-1.382 4.559 3.736 13.872 5.823 17.076 2.045 2.181 3.318 5.085 3.942 9.052.301 1.939.661 4.007 1.255 5.975.806 2.695 2.126 3.65 5.039 3.65.821-.009 1.528-.027 2.234-.044.893-.023 1.785-.044 2.678-.044 2.184 0 4.771.115 7.406.979 1.778.576 3.672 1.173 5.536 1.543 3.91.777 6.99-.441 9.404-3.734 1.869-2.548 3.084-5.578 3.937-9.827l.057-.277c.167-.84.34-1.683.578-2.502.871-3.031 2.588-4.328 5.743-4.333.738 0 1.478.034 2.215.068 1.268.06 2.541.122 3.794-.022 2.337-.264 4.616-.866 6.536-1.418 3.684-1.059 6.684-.08 8.982 2.883 2.967 3.819 4.964 8.169 6.912 12.66l.193.452c.376.876.728 1.702 1.191 2.437 1.198 1.894 3.208 2.784 5.239 2.33 1.426-.321 2.266-1.031 2.568-2.162.95-3.544 1.825-7.109 2.701-10.668l.539-2.184c.042-.173.078-.354.112-.538.19-.969.505-2.594 2.278-3.054.264-.068.527-.102.785-.102 1.713 0 2.666 1.446 3.232 2.308.672 1.013 1.304 2.184 1.988 3.679.487 1.071 1.241 1.817 2.514 2.493 1.428.756 2.758 1.679 4.046 2.573l1.298.894c.311.208.502.469.683.722l1.361 1.713-2.726.676c-.726.184-1.4.356-2.081.49-1.366.274-2.251 1.006-2.776 2.293-.951 2.344-2.466 4.504-4.769 6.793-1.492 1.484-2.701 2.896-3.703 4.322-.581.826-.588 1.253-.537 1.346.045.099.397.353 1.431.397 4.782.189 9.278 1.726 13.367 4.571 1.058.735 2.157.912 3.419.685 2.446-.44 4.665-1.484 6.778-3.196 1.021-.82 2.108-1.558 3.16-2.267.534-.36 1.069-.722 1.597-1.097a310.846 310.846 0 0 0 3.944-2.844c1.245-.918 1.759-2.151 1.717-4.125-.085-3.871-.076-8.363 1.116-12.666.214-.78.498-1.547.804-2.301l.002-.017c.912-2.801 6.493-10.878 9.346-10.878.381 0 .738.115 1.031.337.34.254.637.629.982 1.064.608.767 1.367 1.725 2.168 1.725.795 0 3.058-.983 6.82-10.077 6.905-16.693 5.153-32.708 5.073-33.378-.369-1.096-.942-2.435-1.703-3.883-1.742-3.32-1.756-6.823-.036-10.42.725-1.529 1.798-2.54 3.276-3.09.146-.054.373-.265.59-.468.216-.202.437-.402.671-.57.131-.094.265-.209.398-.319.507-.424 1.137-.95 1.952-1.02 1.796-.155 3.086-.998 4.06-2.648.89-1.516 1.47-1.516 1.75-1.516h.597l.357.5c.371.541.148 1.123.041 1.399l-.124.337c-.113.322-.23.641-.385.943-1.508 2.958-3.217 6.315-6.22 8.819-.827.687-1.117 1.705-.978 3.4l.435 5.121c.375 4.354.76 8.86 1.039 13.299.186 2.994.395 6.381.183 9.714l.033.185-.055.145c-.145 2.005-.427 3.788-.858 5.446-1.628 6.279-3.334 12.386-6.232 18.098a.196.196 0 0 0-.006.014c2.838 3.712 4.282 8.022 5.677 12.192l1.899 5.585c1.187 3.483 2.413 7.083 3.722 10.582 1.463 3.907 3.968 7.3 7.658 10.372a575.067 575.067 0 0 1 7.865 6.694l.219.191a1590.96 1590.96 0 0 1 11.339 9.915c2.635 2.315 5.267 4.631 7.912 6.936.671.59 1.358 1.163 2.042 1.738 1.326 1.112 2.7 2.265 3.971 3.506 2.914 2.848 6.569 4.066 10.374 5.16 6.66 1.905 11.933 2.646 17.196 2.34.912-.051 1.818-.19 2.723-.325a42.616 42.616 0 0 1 1.949-.265c.868-.102 1.776-.172 2.645-.059 2.546.338 4.028 2.095 3.771 4.477-.174 1.6-.599 3.152-1.011 4.651l-.357 1.327c-.04.149-.087.295-.141.44 1.236.06 2.679.166 4.176.277 2.58.192 5.283.391 7.072.36 2.059-4.385 5.665-12.599 8.86-19.884 3.501-7.976 6.523-14.866 7.377-16.453.636-1.388 1.957-2.838 3.357-4.372 1.41-1.548 2.869-3.15 3.679-4.773.803-1.614 1.941-4.017 3.178-6.613 3.706-7.812 6.208-13.01 7.144-14.043.821-.904 2.103-1.405 3.612-1.405.921 0 1.875.194 2.689.549 8.464 4.367 7.967 7.349 6.269 12.681l-.278.877c-.776 2.49-1.826 5.174-3.114 7.977-.329.718-.334 1.365-.014 1.871.477.736 1.58.969 1.945.195.089-.195.706-1.688 1.712-4.127 29.883-72.408 32.076-73.095 33.253-73.464 3.218-1.015 7.502.199 10.797 2.968 1.699 1.429 1.472 3.593 1.07 4.648-1.857 4.854-5.859 15.255-10.673 27.766-10.03 26.065-23.765 61.762-28.693 74.814-1.054 2.793-.874 5.496-.504 9.011.565 5.316-.823 10.186-2.253 14.251-1.595 4.524-5.719 13.5-7.238 16.609 1.364.762 4.002 2.204 6.572 3.614 2.486 1.359 5.083 2.78 6.936 3.805 3.609 1.999 7.511 4.215 11.42 6.72 37.622-50.964 59.896-113.918 59.896-181.983 0-169.321-137.756-307.076-307.079-307.076-169.322 0-307.077 137.755-307.077 307.076 0 72.834 25.503 139.811 68.028 192.512Z" style="fill:#ea4524;fill-rule:nonzero"/></g></svg>