<?xml version="1.0" encoding="utf-8"?>
<!-- Generator: Adobe Illustrator 27.5.0, SVG Export Plug-In . SVG Version: 6.00 Build 0)  -->
<svg version="1.1" id="Layer_1" xmlns="http://www.w3.org/2000/svg" xmlns:xlink="http://www.w3.org/1999/xlink" x="0px" y="0px"
	 viewBox="0 0 100 100" style="enable-background:new 0 0 100 100;" xml:space="preserve">
<style type="text/css">
	.st0{fill:#05B492;}
	.st1{fill:#D7EEEB;}
	.st2{fill:#1F3C56;}
</style>
<g>
	<path class="st0" d="M97.6,40.5C98,48,97,55.5,96.9,63c-0.2,7.7-0.2,16.3-5.4,22.5c-3,3.3-6.5,5.8-10.2,7.6c0,0,0,0,0,0
		c-0.8,0.7-1.7,1.3-2.7,1.8c-2.8,1.1-5.7,1.6-8.6,1.8C62.9,98,55.6,98.2,48.8,98c-3.5-0.1-7.1-0.2-10.6-0.6c-2.7,0.2-5.5,0.2-8.3,0
		c-6.4-0.3-14-3.9-14.3-10.1c-0.1-1.5,0.3-3.2,1.3-5.1c1.2-2,4.2-1.2,4.7,0.9c0.3,0.4,0.5,0.8,0.7,1.2c1.1,1,2.6,1.5,4,2.1
		c5.2,1.9,10.8,0.6,16.2,0.8c5.8-0.6,11.9,0.7,17.7,0.1c5.8-1.7,12.8-0.3,17.6-4.6c11.5-11.5,10-32.5,8.9-47.6
		c-0.7-4.6,0.4-9.9-2.5-13.8c-0.2-0.4-0.4-0.7-0.6-1.1c0,0,0,0,0,0c0-0.2-0.1-0.3-0.1-0.5c0-0.2-0.1-0.3-0.1-0.5
		c0-0.1-0.1-0.2-0.1-0.3c0-0.1,0-0.1-0.1-0.2c0-0.1-0.1-0.2-0.1-0.3c0-0.2-0.1-0.3-0.1-0.4c0-0.1-0.1-0.2-0.1-0.3c0,0,0-0.1,0-0.1
		c0-0.1-0.1-0.2-0.1-0.3c-0.1-0.2-0.2-0.4-0.3-0.6c-0.1-0.1-0.1-0.2-0.2-0.3C82.1,16.2,82,16.1,82,16c-0.3-0.5-0.7-0.9-1.1-1.4
		c-0.1-0.1-0.1-0.1-0.2-0.2c-0.1-0.1-0.1-0.1-0.2-0.2c-0.2-0.2-0.4-0.4-0.7-0.6c-0.1-0.1-0.2-0.2-0.4-0.3c-0.3-0.2-0.6-0.4-0.9-0.6
		c-0.1-0.1-0.3-0.2-0.4-0.2c-0.2-0.1-0.3-0.2-0.5-0.3c0,0-0.1,0-0.1-0.1c0,0-0.1,0-0.1-0.1c1.5-0.2,3.2-0.3,4.7-0.4
		c1.1-0.8,2.3-0.6,3.4,0c1,0.1,1.9,0.4,2.7,0.8c4.3,1.9,7.3,6.6,7.5,11.6C96.4,29.7,97.3,35,97.6,40.5z"/>
	<path class="st1" d="M28.5,24.3c7.6,0.8,7.5,11.4,0.4,11.4c-0.3,0-0.6,0-0.9-0.1C22.2,34.5,22.2,24.1,28.5,24.3z"/>
	<path class="st1" d="M59.2,44.7c2.3,3.4-1.2,6.5-4.3,7.5c-2.9,0.8-7.2,4.9-10.5,4.9c-1.1,0-2.2-0.5-3-1.8c-2.3-5.1,4.6-7.4,8.1-9.2
		C45.8,43,35.6,32.5,43.2,29c2.1-0.3,3,1.6,3.7,3.2c1.7,2.5,3.8,4.7,6,6.8C54.8,41.1,57.3,42.6,59.2,44.7z"/>
	<path class="st1" d="M66.5,24.2c5.2,3.1,1.3,11.2-3.2,11.2c-1.2,0-2.5-0.6-3.6-2C56,28.9,60.8,20.7,66.5,24.2z"/>
	<path class="st2" d="M41.4,55.3c-2.3-5.1,4.6-7.4,8.1-9.2C45.8,43,35.6,32.5,43.2,29c2.1-0.3,3,1.6,3.7,3.2c1.7,2.5,3.8,4.7,6,6.8
		c1.9,2.1,4.4,3.6,6.3,5.7c2.3,3.4-1.2,6.5-4.3,7.5c-2.9,0.8-7.2,4.9-10.5,4.9C43.2,57.1,42.2,56.6,41.4,55.3z"/>
	<path class="st2" d="M28,35.7c-5.7-1.1-5.8-11.5,0.6-11.3c7.6,0.8,7.5,11.4,0.4,11.4C28.6,35.7,28.3,35.7,28,35.7z"/>
	<path class="st2" d="M59.7,33.5c-3.7-4.5,1.2-12.8,6.8-9.3c5.2,3.1,1.3,11.2-3.2,11.2C62.1,35.4,60.8,34.9,59.7,33.5z"/>
	<path class="st2" d="M91.2,27.5c0.7,5.9,1.3,11.7,1.1,17.7c0.1,8.8,1.4,17.9-1.9,26.3c-1,2.8-2.7,5.3-4.4,7.8
		c-2.4,3.5-5.1,7-8.8,9.1c-5.2,2.7-11.3,3-17.1,3c-1.5,0-3.1,0-4.6,0c-2.7,0-5.4,0-8.1-0.3C44.7,91,41.9,91,39,91
		c-9.2,0.1-18.7,0.1-26.2-5.6C5,79.2,4.3,68.6,3.2,59.3C2.8,53.1,3,46.8,3.1,40.5c0.1-9.1-0.3-18.7,4.3-26.9c3-5.3,9.1-10.4,15.5-11
		c1.8-0.4,3.8-0.6,5.2-0.5c1.4,0.3,3,0,4.4,0.3C37.4,2.6,42.2,2.2,47,2c5.8-0.5,11.6-1.8,17.4-0.2c6.4,1.3,13.5,0.7,18.8,5
		C90.3,11.3,90.5,20,91.2,27.5z M84.5,67.5c1.3-4.8,1.3-9.7,1.1-14.7c0-0.5-0.1-1.1-0.1-1.6c0-0.1,0-0.1,0-0.2
		c0-0.8-0.1-1.6-0.1-2.4c0-0.1,0-0.2,0-0.3c-0.1-1.9-0.2-3.9-0.1-5.8c0-2.4-0.1-4.8-0.3-7.2c0-0.4-0.1-0.8-0.1-1.1
		c-0.1-0.8-0.1-1.5-0.2-2.3c0-0.4-0.1-0.8-0.1-1.1c-0.1-0.8-0.2-1.5-0.2-2.3c-0.2-1.5-0.3-3-0.5-4.6c0-0.4,0-0.8-0.1-1.1
		c0-0.7-0.1-1.4-0.2-2.1c0-0.3-0.1-0.6-0.2-1c-0.3-1.7-0.9-3.2-1.9-4.4c-0.2-0.2-0.4-0.4-0.6-0.7c-0.1-0.1-0.2-0.2-0.3-0.3
		c-0.2-0.2-0.4-0.4-0.7-0.6c-0.2-0.2-0.4-0.3-0.6-0.5c-0.1-0.1-0.2-0.2-0.3-0.2c-0.8-0.5-1.7-1-2.8-1.4c-0.3-0.1-0.6-0.2-1-0.3
		c-0.5-0.2-1-0.3-1.5-0.4c-0.3-0.1-0.7-0.1-1-0.2c-1.5-0.2-3-0.3-4.5-0.5c-3.9-0.4-7.8-1.5-11.8-1.5c-6.8,0.9-13.7,1.1-20.5,1.3
		c-2.2,0-4.3-0.2-6.5-0.2c-0.1,0-0.1,0-0.2,0c-0.1,0-0.1,0-0.2,0c-0.1,0-0.1,0-0.2,0c-0.1,0-0.1,0-0.2,0c-0.1,0-0.1,0-0.2,0
		c-0.1,0-0.1,0-0.2-0.1c-0.1,0-0.1,0-0.2-0.1c-0.1,0-0.1,0-0.2-0.1c0,0,0,0,0,0c-0.1,0-0.1,0-0.2,0c-0.2,0-0.3,0-0.5,0
		c-0.5,0-1,0-1.5,0.1c-0.1,0-0.1,0-0.2,0c-0.1,0-0.1,0-0.2,0c-0.2,0-0.4,0-0.6,0.1c-0.1,0-0.2,0-0.3,0.1c-0.2,0-0.4,0.1-0.6,0.1
		c-0.2,0-0.3,0.1-0.5,0.1c-0.1,0-0.1,0-0.2,0.1c-0.3,0.1-0.5,0.1-0.8,0.2c0,0,0,0,0,0c-0.2,0.1-0.4,0.2-0.6,0.2
		c-0.2,0.1-0.3,0.1-0.5,0.2c-0.2,0.1-0.4,0.2-0.5,0.2c-0.2,0.1-0.4,0.2-0.6,0.3c-0.1,0.1-0.2,0.1-0.4,0.2c-0.1,0.1-0.2,0.1-0.3,0.2
		c-0.1,0.1-0.3,0.2-0.4,0.2c-1.1,0.6-2,1.3-2.9,2.1c-0.1,0.1-0.2,0.2-0.3,0.3c-0.1,0.1-0.1,0.1-0.2,0.2c-0.1,0.1-0.2,0.2-0.2,0.2
		c-0.7,0.7-1.3,1.5-1.9,2.3c-0.1,0.1-0.2,0.2-0.2,0.4c-0.1,0.1-0.2,0.2-0.2,0.4c-0.1,0.2-0.3,0.5-0.4,0.7c-0.1,0.1-0.1,0.2-0.2,0.4
		c-0.1,0.1-0.1,0.3-0.2,0.4c-0.2,0.4-0.4,0.8-0.5,1.3c0,0.1-0.1,0.2-0.1,0.3c-0.1,0.1-0.1,0.3-0.1,0.4c0,0.1-0.1,0.3-0.1,0.4
		c-0.1,0.3-0.2,0.6-0.2,0.8c-0.1,0.3-0.2,0.6-0.2,0.8c0,0.1-0.1,0.3-0.1,0.4c-0.1,0.3-0.1,0.6-0.2,0.9c-0.1,0.3-0.1,0.6-0.2,0.9
		c-0.1,0.3-0.1,0.6-0.1,0.9c0,0.2,0,0.3-0.1,0.5c0,0.2-0.1,0.4-0.1,0.7c0,0.2-0.1,0.5-0.1,0.7c-0.4,4.7-0.2,9.8-0.1,15.1
		c0,2,0,4,0,6c0,2.1,0,4.1,0.1,6.2c0,0.4,0,0.9,0.1,1.3c0,0.4,0,0.8,0.1,1.2c0.1,2.1,0.3,4.2,0.7,6.3c0.1,0.6,0.2,1.2,0.2,1.8
		c0.1,0.6,0.2,1.2,0.3,1.8c0,0.2,0.1,0.4,0.1,0.6c0.1,0.4,0.1,0.8,0.2,1.2c0.1,0.4,0.2,0.8,0.2,1.2c0.9,4,2.7,7.6,6.8,9.9
		c0.7,0.3,1.3,0.6,2,0.8c0.3,0.1,0.7,0.2,1,0.3c0,0,0,0,0,0c0.3,0.1,0.7,0.2,1,0.3c0.9,0.2,1.7,0.4,2.6,0.6c0.3,0.1,0.7,0.1,1,0.2
		c1.8,0.3,3.6,0.4,5.3,0.5c0.4,0,0.7,0,1.1,0c2.3,0.1,4.6,0,6.9,0c0.5,0,1,0,1.4,0c1.2,0,2.4,0,3.6,0c1.6,0,3.1,0.1,4.7,0.2
		c0.4,0,0.9,0,1.3,0.1c1.6,0.1,3.2,0.1,4.9,0.2c1.6,0.1,3.2,0.1,4.8,0.1c0.7,0,1.3,0,2,0c0.7,0,1.4,0,2.2-0.1
		c3.9-0.4,8.4-0.7,11.3-3.5C79.4,76.6,82.6,72.3,84.5,67.5z"/>
	<path class="st1" d="M85.6,56.1c0,0.4,0,0.7,0,1c0,3.5-0.3,6.9-1.2,10.3c-1.8,4.8-5,9.1-8.5,12.9c-3,2.8-7.5,3.1-11.3,3.5
		c0,0,0,0-0.1,0c-0.6,0-1.1,0-1.7,0.1c-0.8,0-1.6,0-2.4,0c-1.6,0-3.2,0-4.8-0.1c-0.8,0-1.6-0.1-2.4-0.1c-0.8,0-1.6-0.1-2.4-0.1
		c-0.5,0-1.1,0-1.6-0.1c-0.7,0-1.3-0.1-2-0.1c0,0,0,0,0,0c-0.8,0-1.6-0.1-2.4-0.1c-0.6,0-1.2,0-1.8,0c-0.6,0-1.2,0-1.8,0
		c-0.5,0-1,0-1.4,0c-1.4,0-2.8,0.1-4.2,0.1c-0.4,0-0.9,0-1.3,0c-0.5,0-0.9,0-1.4,0c-0.4,0-0.7,0-1.1,0c-0.2,0-0.5,0-0.7,0
		c-0.7,0-1.3-0.1-2-0.2c-1.2-0.1-2.5-0.3-3.7-0.5c-0.2,0-0.4-0.1-0.6-0.1c-0.2,0-0.4-0.1-0.6-0.1c-1.4-0.3-2.7-0.7-4-1.2
		c-0.3-0.1-0.6-0.2-0.9-0.4c-0.2-0.1-0.3-0.1-0.5-0.2c-0.2-0.1-0.3-0.2-0.5-0.3c0,0-0.1-0.1-0.1-0.1c-0.2-0.1-0.3-0.2-0.5-0.3
		c0,0,0,0,0,0c-0.2-0.1-0.3-0.2-0.5-0.4c0,0,0,0,0,0c-0.1-0.1-0.3-0.2-0.4-0.4c0,0,0,0-0.1,0c-0.1-0.1-0.3-0.3-0.4-0.4
		c-0.1-0.1-0.3-0.3-0.4-0.4c-0.1-0.1-0.3-0.3-0.4-0.4c-0.1-0.1-0.2-0.2-0.3-0.4c0,0-0.1-0.1-0.1-0.1c-0.1-0.1-0.2-0.2-0.3-0.4
		c-0.1-0.1-0.2-0.3-0.3-0.4c-0.1-0.1-0.1-0.2-0.2-0.3c-0.2-0.3-0.3-0.5-0.5-0.8c-0.1-0.2-0.2-0.3-0.2-0.5c-0.1-0.2-0.2-0.3-0.2-0.5
		c-0.1-0.2-0.2-0.3-0.2-0.5c-0.4-1.1-0.8-2.2-1-3.3c-0.1-0.4-0.2-0.8-0.2-1.2c-0.1-0.4-0.1-0.8-0.2-1.2c-0.1-0.4-0.1-0.8-0.2-1.2
		c-0.1-0.4-0.1-0.8-0.2-1.2c0-0.2-0.1-0.4-0.1-0.6C11.1,65,11,64.6,11,64.2c-0.1-0.5-0.2-1.1-0.2-1.6c0-0.3-0.1-0.5-0.1-0.8
		c0-0.3-0.1-0.5-0.1-0.8c-0.1-0.5-0.1-1-0.1-1.5c0-0.1,0-0.1,0-0.2c0-0.5-0.1-0.9-0.1-1.4c-0.1-0.9-0.1-1.8-0.1-2.6
		c0-0.6,0-1.3,0-1.9c0-2.8,0-5.5,0-8.3c0-0.6,0-1.2,0-1.8c0-3.3-0.1-6.6-0.1-9.7c0-0.7,0-1.3,0-2c0-0.2,0-0.3,0-0.5
		c0-0.2,0-0.3,0-0.5c0-0.2,0-0.3,0-0.5c0-0.2,0-0.3,0-0.5c0-0.3,0-0.6,0.1-1c0.1-1.4,0.3-2.8,0.5-4.1c0.1-0.3,0.1-0.6,0.2-0.9
		c0-0.1,0.1-0.3,0.1-0.4c0.1-0.3,0.1-0.6,0.2-0.8c0.1-0.3,0.2-0.6,0.2-0.8c0-0.1,0.1-0.3,0.1-0.4c0-0.1,0.1-0.3,0.1-0.4
		c0-0.1,0.1-0.2,0.1-0.3c0,0,0,0,0,0c0.1-0.2,0.1-0.3,0.2-0.5c0-0.1,0.1-0.2,0.1-0.2c0.1-0.2,0.2-0.4,0.2-0.5c0.2-0.5,0.5-1,0.8-1.5
		c0.1-0.1,0.1-0.2,0.2-0.4c0.5-0.7,1-1.5,1.6-2.1c0.2-0.2,0.3-0.4,0.5-0.6c0.1-0.1,0.2-0.2,0.2-0.2c0.3-0.3,0.7-0.7,1.1-1
		c0.1-0.1,0.2-0.1,0.3-0.2c0.3-0.2,0.6-0.4,0.8-0.6c0.1-0.1,0.3-0.2,0.4-0.3c0.1-0.1,0.3-0.2,0.4-0.3c0.5-0.3,1-0.6,1.5-0.8
		c0.2-0.1,0.4-0.2,0.6-0.3c0.2-0.1,0.4-0.2,0.5-0.2c0.1-0.1,0.3-0.1,0.4-0.2c0.2-0.1,0.4-0.2,0.6-0.3c0.5-0.1,1-0.3,1.5-0.4
		c0.2-0.1,0.4-0.1,0.6-0.1c0.1,0,0.1,0,0.2,0c0.1,0,0.2,0,0.3-0.1c0.1,0,0.2,0,0.3,0c0.1,0,0.3,0,0.4,0c0.5-0.1,1-0.1,1.6-0.1
		c0.1,0,0.3,0,0.4,0c0.1,0,0.1,0,0.2,0c0.4,0.2,0.9,0.3,1.4,0.3c2.2,0,4.3,0.2,6.5,0.2c6.9-0.2,13.7-0.5,20.5-1.3
		c4,0,7.8,1.1,11.8,1.5c0.3,0,0.6,0.1,0.9,0.1c0.8,0.1,1.7,0.1,2.5,0.2c0.2,0,0.3,0,0.5,0.1c0.2,0,0.4,0.1,0.6,0.1
		c0.3,0.1,0.7,0.1,1,0.2c0.2,0,0.3,0.1,0.5,0.1c0.2,0,0.3,0.1,0.5,0.1c0.2,0,0.3,0.1,0.5,0.1c0.3,0.1,0.6,0.2,1,0.3
		c0.4,0.2,0.8,0.3,1.1,0.5c0.1,0,0.2,0.1,0.3,0.1c0,0,0.1,0,0.1,0.1c0,0,0.1,0,0.1,0.1c0.2,0.1,0.3,0.2,0.5,0.3
		c0.1,0.1,0.3,0.2,0.4,0.2c0.3,0.2,0.6,0.4,0.9,0.6c0.1,0.1,0.3,0.2,0.4,0.3c0.2,0.2,0.5,0.4,0.7,0.6c0.1,0.1,0.2,0.2,0.3,0.3
		c0.4,0.4,0.8,0.9,1.1,1.4c0.1,0.1,0.1,0.2,0.2,0.3c0.1,0.1,0.1,0.2,0.2,0.3c0.1,0.2,0.2,0.4,0.3,0.6c0,0.1,0.1,0.2,0.1,0.3
		c0,0,0,0.1,0,0.1c0,0.1,0.1,0.2,0.1,0.3c0.1,0.1,0.1,0.3,0.1,0.4c0,0.1,0.1,0.2,0.1,0.3c0,0.1,0,0.1,0.1,0.2c0,0.1,0.1,0.2,0.1,0.3
		c0,0.2,0.1,0.3,0.1,0.5c0,0.2,0.1,0.3,0.1,0.5c0,0,0,0,0,0c0,0.1,0,0.3,0.1,0.4c0,0.3,0.1,0.6,0.1,1c0.1,0.7,0.1,1.5,0.1,2.3
		c0.6,6.2,1.5,12.4,1.4,18.6c0,0.2,0,0.5,0,0.7c0,0.4,0,0.8,0,1.3c0,0.3,0,0.6,0,1c0,1.3,0.1,2.6,0.2,3.9c0,0.5,0.1,1,0.1,1.5
		c0,0.1,0,0.2,0,0.3c0,0.4,0,0.9,0.1,1.3C85.6,53.7,85.6,54.9,85.6,56.1z M63.3,35.4c4.5,0,8.4-8.1,3.2-11.2
		c-5.7-3.5-10.5,4.7-6.8,9.3C60.8,34.9,62.1,35.4,63.3,35.4z M54.9,52.2c3.1-1,6.6-4.1,4.3-7.5c-1.9-2.1-4.4-3.6-6.3-5.7
		c-2.1-2.1-4.3-4.3-6-6.8c-0.7-1.6-1.7-3.5-3.7-3.2c-7.6,3.5,2.6,13.9,6.3,17.1c-3.5,1.7-10.4,4.1-8.1,9.2c0.8,1.3,1.8,1.8,3,1.8
		C47.6,57.1,51.9,53,54.9,52.2z M28.9,35.7c7.1,0,7.2-10.5-0.4-11.4c-6.3-0.2-6.3,10.2-0.6,11.3C28.3,35.7,28.6,35.7,28.9,35.7z"/>
	<path class="st2" d="M42.4,77C34.2,76,28,69.3,25.2,61.9c-0.9-2.2-1.2-5,0.2-7.1c0.8-1.2,2.6-1.6,3.8-0.6c1,0.8,1.2,2.2,1.5,3.4
		c1.5,3.4,3.6,6.6,6.4,9c3.1,2.6,7.3,3,11.2,3.4c5.5,0.8,10.6-1.9,14.5-5.7c2.2-2,3.4-4.7,4.4-7.5c1-2.6,2.3-7.5,6-6.1
		c4.4,2.4-0.1,10.5-1.4,13.8c-2.6,4.9-7.1,8.7-12,11.2C54.3,78.5,48.2,78,42.4,77z"/>
	<path class="st2" d="M73.8,61.1c-0.7-1.2-1.3-2.3-1.8-3.5c-0.1-0.2-0.2-0.4-0.2-0.6c-2.9,1.4-8.3,1.6-8.3-2.7
		c0-2.7,2.3-3.6,4.6-3.8c4.5-1.4,6.5-4,9.1,1.8c1.2,3.1,4.9,7.4,1.2,10.1C76.7,63.4,74.7,62.7,73.8,61.1z"/>
</g>
</svg>
