<svg id="Layer_1" data-name="Layer 1" xmlns="http://www.w3.org/2000/svg" viewBox="0 0 241.27 44.68"><defs><style>.cls-1{fill:#353330;}</style></defs><path class="cls-1" d="M79.38,11.21a15.68,15.68,0,0,0-4.7-1.66,31,31,0,0,0-6-.53,29.1,29.1,0,0,0-3.44.14c-1.2.14-2.38.22-3.55.38s-2.29.34-3.38.55-2.06.43-2.93.65v6.17c.84-.32,1.76-.63,2.78-.93s2.1-.56,3.24-.78,2.33-.41,3.55-.54a35.7,35.7,0,0,1,3.73-.19,21.55,21.55,0,0,1,3.93.3,8.4,8.4,0,0,1,2.43.77,2.88,2.88,0,0,1,1.22,1.1,2.79,2.79,0,0,1,.34,1.26v.54q-6.09.35-10.55.94a33.76,33.76,0,0,0-7.36,1.7,10.09,10.09,0,0,0-4.29,2.83A6.57,6.57,0,0,0,53,28.23a6.33,6.33,0,0,0,.9,3.47,7,7,0,0,0,2.4,2.3,11,11,0,0,0,3.43,1.27,20.7,20.7,0,0,0,4,.39,31.8,31.8,0,0,0,3.52-.19,28,28,0,0,0,3.39-.59,27.27,27.27,0,0,0,3.19-1,24.36,24.36,0,0,0,2.85-1.29v2.52h6.92v-17a7.37,7.37,0,0,0-1.11-4.09,8.65,8.65,0,0,0-3.08-2.84M76.67,26.82a16.85,16.85,0,0,1-2.29,1.33,19.07,19.07,0,0,1-2.74,1.09,23.32,23.32,0,0,1-3.08.72,21.74,21.74,0,0,1-3.32.26A13.52,13.52,0,0,1,62.7,30a6.09,6.09,0,0,1-1.62-.5,2,2,0,0,1-.85-.74,1.65,1.65,0,0,1-.24-.87,2.86,2.86,0,0,1,.12-.82,1.89,1.89,0,0,1,.65-.9,5.48,5.48,0,0,1,1.57-.87,16.32,16.32,0,0,1,2.91-.81c1.23-.25,2.78-.46,4.64-.65s4.12-.33,6.79-.43Z" transform="translate(0.01)"/><path class="cls-1" d="M134.31,11.28a9.57,9.57,0,0,0-3.15-1.79A12.31,12.31,0,0,0,127,8.84a15.09,15.09,0,0,0-2.84.27,16.61,16.61,0,0,0-2.67.77,20.4,20.4,0,0,0-2.59,1.22c-.86.47-1.73,1-2.62,1.56a13,13,0,0,0-1.1-1.35,7.06,7.06,0,0,0-1.54-1.23,8.38,8.38,0,0,0-2.14-.9,10.69,10.69,0,0,0-2.87-.34,14.34,14.34,0,0,0-3.13.32,18.05,18.05,0,0,0-5,1.95c-.72.42-1.38.81-2,1.2V9.49H91.52V35.15h6.93v-17a20.85,20.85,0,0,1,2-1.5,17.17,17.17,0,0,1,2.14-1.19,12,12,0,0,1,2.17-.78,7.91,7.91,0,0,1,2-.28,6,6,0,0,1,1.52.19,3.41,3.41,0,0,1,1.27.65,3.12,3.12,0,0,1,.87,1.16,4.37,4.37,0,0,1,.31,1.75v17h6.93V18.45a6,6,0,0,0-.08-.74c3.19-2.24,6-3.36,8.51-3.36a5.29,5.29,0,0,1,1.53.22,3.48,3.48,0,0,1,1.25.69,3.41,3.41,0,0,1,.85,1.21,4.52,4.52,0,0,1,.31,1.78v16.9H137V17.26a8.13,8.13,0,0,0-.68-3.3,7.76,7.76,0,0,0-2-2.68" transform="translate(0.01)"/><path class="cls-1" d="M171.35,11.91a8.46,8.46,0,0,0-3.22-1.82,15.7,15.7,0,0,0-4.82-.64H144.88V35.11h6.94V27h11.5a15.41,15.41,0,0,0,4.82-.65,8.73,8.73,0,0,0,3.22-1.82,6.76,6.76,0,0,0,1.8-2.78,11.39,11.39,0,0,0,0-7.07,6.73,6.73,0,0,0-1.8-2.77m-4.9,8a2.19,2.19,0,0,1-.83,1,3.75,3.75,0,0,1-1.52.54,13.5,13.5,0,0,1-2.29.16h-10V15h10a11.68,11.68,0,0,1,2.29.2,4.17,4.17,0,0,1,1.52.6,2.41,2.41,0,0,1,.83,1.06,4.25,4.25,0,0,1,.25,1.54,3.9,3.9,0,0,1-.25,1.51" transform="translate(0.01)"/><path class="cls-1" d="M189.39,29.23a3.68,3.68,0,0,1-1.75-.82,3.52,3.52,0,0,1-1-1.62,9.68,9.68,0,0,1-.3-2.62V9.49h-6.92V26.73a10.75,10.75,0,0,0,.6,3.77,6,6,0,0,0,2,2.62,9,9,0,0,0,3.47,1.53,22.75,22.75,0,0,0,5.14.5H205.2v-5.7H192a13,13,0,0,1-2.64-.22" transform="translate(0.01)"/><path class="cls-1" d="M241.26,23.36a15.84,15.84,0,0,0-1.15-6.23,12.54,12.54,0,0,0-3.23-4.56,13.79,13.79,0,0,0-5-2.79,20.36,20.36,0,0,0-6.39-.94,21.68,21.68,0,0,0-6.88,1,15.76,15.76,0,0,0-5.25,2.88A12.7,12.7,0,0,0,210,17.05a12.48,12.48,0,0,0-1.19,5.41A13,13,0,0,0,210,28.08a11.4,11.4,0,0,0,3.41,4.2,16,16,0,0,0,5.52,2.62,27.77,27.77,0,0,0,7.48.91,44.65,44.65,0,0,0,6.43-.46,36,36,0,0,0,6.31-1.5v-6a12.06,12.06,0,0,1-2.07.94,28.44,28.44,0,0,1-2.86.85,30.62,30.62,0,0,1-3.42.61,29.08,29.08,0,0,1-3.73.24,23.24,23.24,0,0,1-4.63-.4,11.84,11.84,0,0,1-3.26-1.1,6.36,6.36,0,0,1-2.1-1.72A6.62,6.62,0,0,1,216,25.05h25.29ZM216,20a6.15,6.15,0,0,1,.82-1.83,7.32,7.32,0,0,1,1.79-1.85,9.91,9.91,0,0,1,2.85-1.43,12.31,12.31,0,0,1,4-.58,14.14,14.14,0,0,1,4.14.53,8.3,8.3,0,0,1,2.69,1.35A5.17,5.17,0,0,1,233.77,18a6.37,6.37,0,0,1,.57,2Z" transform="translate(0.01)"/><path class="cls-1" d="M22.33,0A22.34,22.34,0,1,0,44.67,22.34h0A22.34,22.34,0,0,0,22.33,0M35.2,22.34h0V35.23H33.68l-.4,0H33l-.39-.07-.22,0L32,35l-.22-.06-.39-.11-.2-.06-.39-.14-.19-.07-.4-.15-.16-.07-.41-.19-.14-.07-.42-.21L29,33.77l-.42-.24-.1-.06L28,33.19H28c-.16-.1-.31-.21-.46-.32h0l-.47-.37h0a12.86,12.86,0,0,1-4.67-9.07v12h0A12.88,12.88,0,0,1,9.51,22.55H22.32V9.45h0A12.87,12.87,0,0,1,35.19,22.32Z" transform="translate(0.01)"/></svg>