<?xml version="1.0" encoding="utf-8"?>
<!-- Generator: Adobe Illustrator 24.1.3, SVG Export Plug-In . SVG Version: 6.00 Build 0)  -->
<svg version="1.1" id="Layer_1" xmlns="http://www.w3.org/2000/svg" xmlns:xlink="http://www.w3.org/1999/xlink" x="0px" y="0px"
	 viewBox="0 0 588 72" style="enable-background:new 0 0 588 72;" xml:space="preserve">
<style type="text/css">
	.st0{fill:#FFFFFF;}
</style>
<path class="st0" d="M121.1,13.2v22h3.2c8,0,10.8-3.4,11.2-8.4h1.6v19h-1.6c-0.4-4.9-3.2-8.2-11.2-8.2h-3.2v12.6
	c0,8,2.2,10,7.2,10.4v1.6h-22.4v-1.6c4.9-0.4,7.2-2.5,7.2-10.4V22.7c0-8-2.2-10-7.2-10.4v-1.6H147v13.8h-1.6
	c-1.3-6.3-5-11.3-14.1-11.3H121.1z"/>
<path class="st0" d="M403.7,50.4V22.7c0-8-2.2-10-7.2-10.4v-1.6h41.1v13.8H436c-1.3-6.3-5-11.3-14-11.3h-10.2v22h3.2
	c8,0,10.8-3.4,11.2-8.4h1.6V46h-1.6c-0.4-4.9-3.2-8.4-11.2-8.4h-3.2v22.2h11c9.6,0,13.4-6.4,14.8-12.7h1.6v15.2h-42.6v-1.6
	C401.5,60.4,403.7,58.3,403.7,50.4"/>
<path class="st0" d="M543.5,25.3H542V10.7h45v14.7h-1.6c-1.4-6.9-4.9-12.2-14.1-12.2h-2.9v37.2c0,8,2.2,10,7.2,10.4v1.6h-22.4v-1.6
	c4.9-0.4,7.2-2.5,7.2-10.4V13.2h-2.9C548.4,13.2,545,18.5,543.5,25.3"/>
<path class="st0" d="M266.3,60.8c-10.8,0-15.6-9.9-15.6-24.3c0-14.5,4.8-24.3,15.6-24.3c10.8,0,15.6,9.9,15.6,24.3
	S277.1,60.8,266.3,60.8 M266.3,9.6c-13.6,0-24.9,12-24.9,26.8s11.3,26.8,24.9,26.8c13.6,0,24.9-12,24.9-26.8
	C291.2,21.6,279.9,9.6,266.3,9.6"/>
<path class="st0" d="M352.3,23c0-7.6-3.8-9.9-11-9.9h-7.5v37.3c0,8,2.2,10,7.2,10.4v1.6h-22.4v-1.6c4.9-0.4,7.2-2.5,7.2-10.4V22.7
	c0-8-2.2-10-7.2-10.4v-1.6h25.1c10.5,0,17.4,5,17.4,12.2c0,6.1-5.5,11.7-13.7,13.2c9.2,1,11.1,7,11.8,11.7c0.8,5.1,1.6,14,10,12.5
	l0.2,1.5c-6.2,2.3-15,2.4-16.9-6.2c-1.7-7.9-2-17.8-10.6-17.8h-4.5v-2.3h2C347.3,35.2,352.3,31.3,352.3,23"/>
<path class="st0" d="M35.5,66.5c-16.5,0-30-13.5-30-30s13.5-30,30-30s30,13.5,30,30C65.5,53.1,52,66.5,35.5,66.5 M35.5,1.9
	C16.4,1.9,0.8,17.4,0.8,36.5s15.5,34.7,34.7,34.7c19.1,0,34.7-15.5,34.7-34.7C70.1,17.4,54.6,1.9,35.5,1.9"/>
<path class="st0" d="M44.2,22.6h7.9v1c-2.2,0.2-3.1,2-3.1,5.5v14.7c0,3.6,0.9,5.4,3.1,5.5v1h-7.9V22.6z"/>
<path class="st0" d="M18.8,22.6h7.9v27.9h-7.9v-1c2.2-0.2,3.1-2,3.1-5.5V29.2c0-3.6-0.9-5.4-3.1-5.5V22.6z"/>
<rect x="33.1" y="22.6" class="st0" width="4.8" height="27.9"/>
<path class="st0" d="M509.9,50.6L509.9,50.6L495,10.7h-4.3l-14.9,39.9c-2.4,6.3-5.7,9.9-10.6,10.2v1.6h18.2v-1.6
	c-4.8-0.9-7.4-3.2-4.8-10.2l2.6-6.9h18.1l2.6,6.9c2.6,7,2.3,9.8-3.5,10.2v1.6h21.4v-1.6C515.5,60.2,512.7,57.9,509.9,50.6
	 M482.1,41.2l8.1-21.7l8.1,21.7H482.1z"/>
<path class="st0" d="M183.8,50.4V22.7c0-8-2.2-10-7.2-10.4v-1.6H199v1.6c-4.9,0.4-7.2,2.5-7.2,10.4v37.2h9.3
	c9.6,0,13.4-6.4,14.8-12.7h1.4v15.2h-40.7v-1.6C181.5,60.4,183.8,58.3,183.8,50.4"/>
</svg>
